<svg width="177" height="56" viewBox="0 0 177 56" fill="none" xmlns="http://www.w3.org/2000/svg">
<path d="M27.8814 0.5C12.7595 0.5 0.5 12.7592 0.5 27.8811C0.5 43.0037 12.7595 55.2618 27.8814 55.2618C43.005 55.2618 55.2632 43.0037 55.2632 27.8811C55.2632 12.7602 43.005 0.501375 27.8811 0.501375L27.8814 0.5ZM40.4386 39.9914C40.3217 40.1829 40.1683 40.3494 39.987 40.4815C39.8057 40.6136 39.6001 40.7086 39.382 40.7612C39.164 40.8138 38.9377 40.8228 38.7161 40.7878C38.4945 40.7528 38.282 40.6744 38.0908 40.5572C31.662 36.6302 23.5687 35.7409 14.0376 37.9186C13.5962 38.0189 13.1331 37.94 12.75 37.699C12.3668 37.4581 12.095 37.0749 11.9943 36.6336C11.9442 36.4151 11.9377 36.1889 11.9751 35.9679C12.0125 35.7469 12.0931 35.5355 12.2123 35.3457C12.3316 35.1559 12.487 34.9914 12.6699 34.8618C12.8527 34.7321 13.0593 34.6398 13.2779 34.59C23.7083 32.2068 32.6551 33.2329 39.8728 37.6439C40.0642 37.7609 40.2306 37.9144 40.3626 38.0957C40.4946 38.277 40.5896 38.4826 40.6421 38.7006C40.6946 38.9187 40.7037 39.1449 40.6687 39.3665C40.6337 39.588 40.5554 39.8005 40.4382 39.9917M43.7898 32.5361C43.1714 33.5406 41.8573 33.8578 40.8532 33.2398C33.4935 28.716 22.2738 27.4057 13.5683 30.0484C13.0264 30.2123 12.4417 30.1546 11.9422 29.888C11.4428 29.6213 11.0695 29.1675 10.9043 28.626C10.7409 28.0842 10.799 27.4997 11.0659 27.0006C11.3327 26.5016 11.7865 26.1287 12.3278 25.9636C22.2721 22.9462 34.6344 24.4078 43.0865 29.6015C44.0903 30.2196 44.4075 31.5341 43.7895 32.5365M44.0768 24.7729C35.2531 19.5307 20.6926 19.0487 12.2669 21.6063C10.9139 22.0167 9.48322 21.2529 9.07347 19.8999C8.87634 19.2499 8.94539 18.5482 9.26543 17.9491C9.58548 17.3501 10.1303 16.9026 10.7802 16.7051C20.4523 13.7687 36.5312 14.3359 46.6914 20.3677C46.981 20.539 47.234 20.7657 47.4358 21.0349C47.6376 21.3041 47.7843 21.6105 47.8675 21.9365C47.9508 22.2625 47.9688 22.6017 47.9207 22.9347C47.8726 23.2677 47.7593 23.5879 47.5872 23.8771C46.8681 25.0939 45.292 25.4951 44.0789 24.7725L44.0768 24.7729ZM74.9951 25.7773C70.2672 24.6498 69.427 23.8588 69.427 22.1961C69.427 20.6252 70.9048 19.5682 73.1052 19.5682C75.2371 19.5682 77.3494 20.3712 79.5663 22.0236C79.6316 22.0734 79.7165 22.0933 79.7983 22.0803C79.8394 22.0742 79.8788 22.0599 79.9143 22.0382C79.9497 22.0165 79.9804 21.9879 80.0046 21.9541L82.3128 18.7002C82.3585 18.6357 82.3778 18.5562 82.3669 18.478C82.3559 18.3998 82.3156 18.3286 82.2541 18.2791C79.6154 16.1626 76.6465 15.1338 73.1739 15.1338C68.0699 15.1338 64.5028 18.1969 64.5028 22.5801C64.5028 27.2802 67.5794 28.9446 72.8962 30.2292C77.4182 31.2711 78.183 32.1439 78.183 33.7045C78.183 35.4343 76.6396 36.5099 74.155 36.5099C71.3953 36.5099 69.1424 35.5783 66.6248 33.4003C66.562 33.3473 66.4813 33.3204 66.3993 33.3254C66.3585 33.3283 66.3186 33.3394 66.2821 33.3578C66.2456 33.3763 66.2131 33.4019 66.1865 33.433L63.597 36.513C63.545 36.5747 63.5191 36.6543 63.5246 36.7348C63.5301 36.8154 63.5667 36.8906 63.6266 36.9447C66.556 39.5607 70.1592 40.9405 74.0501 40.9405C79.5501 40.9405 83.1042 37.9354 83.1042 33.2827C83.1138 29.3568 80.7632 27.1826 75.0051 25.7818L74.9951 25.7773ZM95.5486 21.1147C93.165 21.1147 91.2098 22.0538 89.5945 23.9781V21.8125C89.5945 21.6413 89.457 21.5021 89.2872 21.5021H85.0529C84.9711 21.5026 84.8928 21.5356 84.8352 21.5937C84.7776 21.6518 84.7454 21.7303 84.7456 21.8122V45.8777C84.7456 46.0476 84.8831 46.1882 85.0529 46.1882H89.2872C89.3691 46.1876 89.4474 46.1546 89.505 46.0965C89.5626 46.0383 89.5948 45.9596 89.5945 45.8777V38.2819C91.2098 40.09 93.165 40.9762 95.5482 40.9762C99.9792 40.9762 104.465 37.5662 104.465 31.0467C104.472 24.5257 99.9854 21.1143 95.5517 21.1143L95.5486 21.1147ZM99.5409 31.0467C99.5409 34.3649 97.4973 36.6831 94.5675 36.6831C91.6738 36.6831 89.4897 34.2604 89.4897 31.0467C89.4897 27.8326 91.6738 25.4102 94.5675 25.4102C97.4482 25.4102 99.5409 27.78 99.5409 31.0467ZM115.958 21.1143C110.252 21.1143 105.783 25.5075 105.783 31.1175C105.783 36.6666 110.223 41.012 115.889 41.012C121.614 41.012 126.097 36.634 126.097 31.0463C126.097 25.4776 121.644 21.1154 115.958 21.1154V21.1143ZM115.958 36.7154C112.924 36.7154 110.635 34.2762 110.635 31.0446C110.635 27.7982 112.845 25.4422 115.889 25.4422C118.943 25.4422 121.245 27.8804 121.245 31.1154C121.245 34.3614 119.022 36.7154 115.958 36.7154ZM138.28 21.5018H133.621V16.7388C133.621 16.5679 133.483 16.4287 133.314 16.4287H129.08C128.997 16.4289 128.919 16.4616 128.86 16.5197C128.802 16.5777 128.769 16.6565 128.769 16.7388V21.5014H126.735C126.654 21.502 126.575 21.5349 126.518 21.593C126.46 21.6511 126.428 21.7297 126.428 21.8115V25.4497C126.428 25.5316 126.46 25.6102 126.518 25.6684C126.575 25.7266 126.653 25.7596 126.735 25.7601H128.769V35.1754C128.769 38.978 130.662 40.9071 134.4 40.9071C135.917 40.9071 137.175 40.5929 138.362 39.9195C138.41 39.8932 138.45 39.8544 138.478 39.8072C138.506 39.76 138.52 39.7061 138.519 39.6514V36.1854C138.519 36.1329 138.505 36.0814 138.48 36.0357C138.454 35.99 138.417 35.9516 138.372 35.9241C138.328 35.8954 138.276 35.8791 138.224 35.8767C138.171 35.8744 138.118 35.8861 138.071 35.9107C137.257 36.3198 136.469 36.5092 135.586 36.5092C134.229 36.5092 133.621 35.8911 133.621 34.5113V25.7622H138.281C138.362 25.7616 138.441 25.7287 138.498 25.6705C138.556 25.6123 138.588 25.5337 138.588 25.4518V21.8135C138.589 21.7729 138.582 21.7325 138.568 21.6946C138.553 21.6568 138.531 21.6223 138.502 21.5933C138.474 21.5642 138.44 21.5413 138.402 21.5258C138.365 21.5103 138.325 21.5026 138.284 21.5031L138.28 21.5018ZM154.511 21.5203V20.9353C154.511 19.2144 155.171 18.4472 156.649 18.4472C157.533 18.4472 158.242 18.6225 159.036 18.8872C159.083 18.9028 159.133 18.9071 159.181 18.8996C159.23 18.8922 159.276 18.8733 159.315 18.8444C159.355 18.8155 159.387 18.7776 159.409 18.7337C159.431 18.6898 159.443 18.6413 159.442 18.5923L159.442 15.0252C159.443 14.9585 159.422 14.8934 159.382 14.8397C159.343 14.7861 159.287 14.7468 159.223 14.7278C158.386 14.4782 157.313 14.2225 155.704 14.2225C151.797 14.2225 149.727 16.4242 149.727 20.5874V21.4832H147.694C147.612 21.4834 147.533 21.5161 147.474 21.5742C147.416 21.6322 147.383 21.711 147.383 21.7933V25.4501C147.383 25.6209 147.524 25.7605 147.694 25.7605H149.727V40.2794C149.727 40.4527 149.868 40.5902 150.038 40.5902H154.269C154.442 40.5902 154.58 40.4527 154.58 40.2794V25.7612H158.533L164.588 40.2791C163.902 41.8029 163.225 42.1068 162.302 42.1068C161.557 42.1068 160.769 41.8848 159.968 41.4434C159.892 41.405 159.805 41.3967 159.723 41.4203C159.683 41.434 159.645 41.4559 159.614 41.4846C159.582 41.5133 159.557 41.5481 159.54 41.5871L158.105 44.7358C158.072 44.8073 158.067 44.8887 158.092 44.9635C158.117 45.0382 158.169 45.1006 158.239 45.138C159.736 45.9489 161.086 46.2954 162.757 46.2954C165.883 46.2954 167.613 44.8372 169.133 40.9202L176.477 21.9438C176.496 21.8969 176.503 21.8459 176.497 21.7956C176.492 21.7453 176.473 21.6972 176.444 21.6558C176.417 21.6143 176.379 21.5803 176.335 21.5567C176.291 21.5332 176.242 21.521 176.192 21.521H171.785C171.72 21.5206 171.657 21.5404 171.604 21.5777C171.551 21.615 171.512 21.6679 171.491 21.729L166.975 34.6227L162.031 21.7204C162.009 21.662 161.97 21.6117 161.918 21.5761C161.867 21.5405 161.806 21.5213 161.743 21.521H154.511V21.5203ZM145.101 21.5018H140.867C140.784 21.5021 140.706 21.5349 140.648 21.5929C140.589 21.651 140.557 21.7297 140.556 21.8118V40.2794C140.556 40.4527 140.697 40.5902 140.867 40.5902H145.101C145.271 40.5902 145.412 40.4527 145.412 40.2794V21.8132C145.412 21.7724 145.404 21.7319 145.388 21.6942C145.373 21.6564 145.35 21.6221 145.321 21.5933C145.292 21.5644 145.258 21.5416 145.22 21.526C145.182 21.5105 145.142 21.5026 145.101 21.5028V21.5018ZM143.008 13.0922C141.331 13.0922 139.971 14.4501 139.971 16.1269C139.971 16.5258 140.049 16.9207 140.202 17.2893C140.354 17.6578 140.578 17.9927 140.86 18.2747C141.142 18.5568 141.477 18.7805 141.846 18.9331C142.214 19.0858 142.609 19.1643 143.008 19.1643C144.686 19.1643 146.042 17.8051 146.042 16.1269C146.042 15.3222 145.722 14.5504 145.153 13.9814C144.584 13.4123 143.813 13.0925 143.008 13.0922Z" fill="#1ED760"/>
</svg>
