<svg width="42" height="39" viewBox="0 0 42 39" fill="none" xmlns="http://www.w3.org/2000/svg">
<mask id="path-1-outside-1_306_5148" maskUnits="userSpaceOnUse" x="0" y="0" width="42" height="39" fill="black">
<rect fill="white" width="42" height="39"/>
<path fill-rule="evenodd" clip-rule="evenodd" d="M21.1161 12.7475C17.8753 12.7475 15.2423 10.1122 15.2423 6.87374C15.2423 3.63299 17.8776 1 21.1161 1C24.3568 1 26.9898 3.63527 26.9898 6.87374C26.9898 10.1145 24.3545 12.7475 21.1161 12.7475ZM21.1161 2.03398C18.4497 2.03398 16.2664 4.20481 16.2664 6.88366C16.2664 9.55004 18.4372 11.7333 21.1161 11.7333C23.7949 11.7333 25.9658 9.56252 25.9658 6.88366C25.9658 4.20481 23.7949 2.03398 21.1161 2.03398Z"/>
<path fill-rule="evenodd" clip-rule="evenodd" d="M25.4351 24.9849C25.1552 24.9849 24.9168 24.7589 24.9168 24.4665V19.4344C24.9168 18.8289 25.1863 18.267 25.6508 17.9L32.9178 12.047C33.2413 11.7878 33.4465 11.4208 33.4901 11.0103C33.5336 10.5998 33.4133 10.1996 33.1562 9.86583L33.0381 9.71447C32.499 9.05512 31.5576 8.94732 30.8879 9.46566L26.3845 12.9635C24.8626 14.1412 22.9613 14.7881 21.0394 14.7881H20.801C18.8457 14.7881 16.9237 14.1184 15.3789 12.8971L11.2218 9.6025C10.888 9.33296 10.465 9.22514 10.0337 9.28942C9.60244 9.3537 9.22303 9.59213 8.97626 9.94877C8.52219 10.6185 8.66318 11.5246 9.28934 12.0118L16.4051 17.6929C16.8799 18.0702 17.1495 18.6321 17.1495 19.2272V24.4438C17.1495 24.7237 16.9235 24.9622 16.6311 24.9622C16.3388 24.9622 16.1128 24.7362 16.1128 24.4438V19.2272C16.1128 18.9473 15.9821 18.6756 15.7561 18.4932L8.64035 12.8243C7.59326 12.0032 7.36523 10.4814 8.122 9.38039C8.52217 8.7874 9.15869 8.38723 9.87197 8.27943C10.5748 8.17161 11.2985 8.36651 11.8479 8.80814L16.0051 12.1028C17.3653 13.183 19.0613 13.7656 20.7884 13.7656H21.0269C22.7229 13.7656 24.3962 13.1934 25.7459 12.1463L30.2494 8.64848C31.3732 7.78388 32.9489 7.96843 33.8343 9.06938C33.8343 9.06938 33.8343 9.07975 33.8447 9.07975L33.9525 9.23111C34.8378 10.3321 34.6554 11.9514 33.5523 12.8388L26.2852 18.6919C26.0592 18.864 25.939 19.1356 25.939 19.4259V24.4808C25.9494 24.7607 25.713 24.9888 25.431 24.9888L25.4351 24.9849Z"/>
<path fill-rule="evenodd" clip-rule="evenodd" d="M3.57713 30.8379C3.46932 30.8379 3.3615 30.8047 3.27442 30.7405C3.11269 30.6223 3.03597 30.4274 3.06915 30.2428L3.6518 26.8093L1.1575 24.3792C1.01651 24.2383 0.962602 24.0454 1.02688 23.8505C1.09115 23.666 1.24251 23.5271 1.43742 23.5043L4.88135 23.0067L6.42606 19.8758C6.51314 19.7037 6.6956 19.5959 6.8905 19.5959C7.0854 19.5959 7.26786 19.7037 7.35494 19.8758L8.89965 23.0067L12.3436 23.5043C12.5385 23.5374 12.7002 23.666 12.7541 23.8505C12.8184 24.0351 12.7645 24.2403 12.6235 24.3792L10.1292 26.7989L10.7119 30.2325C10.745 30.4274 10.6683 30.6223 10.5066 30.7301C10.3449 30.8483 10.1396 30.8607 9.96751 30.7737L6.89057 29.1543L3.81363 30.7737C3.73691 30.8276 3.66227 30.8379 3.57518 30.8379L3.57713 30.8379ZM6.90286 28.0741C6.98994 28.0741 7.06459 28.0948 7.1413 28.128L9.53814 29.3907L9.08407 26.7118C9.05089 26.5501 9.11724 26.378 9.23543 26.2578L11.1803 24.3668L8.50145 23.977C8.33972 23.9563 8.18837 23.8464 8.11165 23.6971L6.90287 21.2567L5.6941 23.6971C5.61739 23.8485 5.47847 23.9563 5.3043 23.977L2.62545 24.3668L4.57032 26.2578C4.68851 26.3759 4.74242 26.5501 4.72168 26.7118L4.26761 29.3907L6.66445 28.128C6.72872 28.0948 6.81578 28.0741 6.90286 28.0741Z"/>
<path fill-rule="evenodd" clip-rule="evenodd" d="M31.7961 30.8379C31.6883 30.8379 31.5805 30.8047 31.4934 30.7405C31.3317 30.6223 31.255 30.4274 31.2881 30.2428L31.8708 26.8093L29.3765 24.3896C29.2355 24.2486 29.1816 24.0558 29.2459 23.8609C29.3101 23.6763 29.4615 23.5374 29.6564 23.5146L33.1003 23.017L34.6451 19.8862C34.7321 19.7141 34.9146 19.6063 35.1095 19.6063C35.3044 19.6063 35.4869 19.7141 35.5739 19.8862L37.1186 23.017L40.5626 23.5146C40.7575 23.5478 40.9192 23.6764 40.9731 23.8609C41.0374 24.0454 40.9835 24.2507 40.8425 24.3896L38.3482 26.8093L38.9309 30.2428C38.964 30.4377 38.8873 30.6326 38.7256 30.7405C38.5639 30.8586 38.3586 30.8711 38.1865 30.784L35.1096 29.1647L32.0326 30.784C31.9559 30.8275 31.8813 30.8379 31.7942 30.8379H31.7961ZM35.1219 28.0741C35.2089 28.0741 35.2836 28.0948 35.3603 28.128L37.7571 29.3907L37.3031 26.7118C37.2699 26.5501 37.3362 26.378 37.4544 26.2578L39.3993 24.3668L36.7204 23.977C36.5587 23.9563 36.4074 23.8464 36.3306 23.6971L35.1219 21.2567L33.9131 23.6971C33.8364 23.8485 33.6975 23.9563 33.5233 23.977L30.8444 24.3668L32.7893 26.2578C32.9075 26.3759 32.9614 26.5501 32.9407 26.7118L32.4866 29.3907L34.8834 28.128C34.9477 28.0948 35.0348 28.0741 35.1219 28.0741Z"/>
<path fill-rule="evenodd" clip-rule="evenodd" d="M16.0608 38.1156C15.953 38.1156 15.8452 38.0824 15.7581 38.0181C15.5964 37.9 15.5197 37.7051 15.5528 37.5205L16.4714 32.142L12.5506 28.3187C12.4096 28.1777 12.3557 27.9724 12.4199 27.79C12.4842 27.6054 12.6356 27.4665 12.8305 27.4437L18.2398 26.6558L20.647 21.7647C20.7341 21.5926 20.9166 21.4848 21.1115 21.4848C21.3064 21.4848 21.4888 21.5926 21.5759 21.7647L23.9956 26.6558L29.3948 27.4437C29.5897 27.4769 29.7514 27.6054 29.8053 27.79C29.8696 27.9745 29.8157 28.1798 29.6747 28.3187L25.7663 32.142L26.6849 37.5205C26.718 37.7154 26.6413 37.9103 26.4796 38.0181C26.3179 38.1363 26.1126 38.1488 25.9405 38.0617L21.1136 35.5239L16.2867 38.0617C16.2224 38.0949 16.1353 38.1156 16.0586 38.1156H16.0608ZM21.1262 34.4229C21.2132 34.4229 21.2879 34.4436 21.3646 34.4768L25.5114 36.658L24.7235 32.0468C24.6903 31.885 24.7442 31.7129 24.8749 31.5927L28.2338 28.3105L23.6018 27.6408C23.44 27.6201 23.2887 27.5102 23.212 27.3609L21.1386 23.1601L19.0652 27.3609C18.9885 27.5122 18.8496 27.6201 18.6754 27.6408L14.031 28.3105L17.4003 31.5927C17.5185 31.7109 17.5724 31.885 17.5516 32.0468L16.7637 36.658L20.9105 34.4768C20.9645 34.4436 21.0411 34.4229 21.1262 34.4229Z"/>
</mask>
<path fill-rule="evenodd" clip-rule="evenodd" d="M21.1161 12.7475C17.8753 12.7475 15.2423 10.1122 15.2423 6.87374C15.2423 3.63299 17.8776 1 21.1161 1C24.3568 1 26.9898 3.63527 26.9898 6.87374C26.9898 10.1145 24.3545 12.7475 21.1161 12.7475ZM21.1161 2.03398C18.4497 2.03398 16.2664 4.20481 16.2664 6.88366C16.2664 9.55004 18.4372 11.7333 21.1161 11.7333C23.7949 11.7333 25.9658 9.56252 25.9658 6.88366C25.9658 4.20481 23.7949 2.03398 21.1161 2.03398Z" fill="black"/>
<path fill-rule="evenodd" clip-rule="evenodd" d="M25.4351 24.9849C25.1552 24.9849 24.9168 24.7589 24.9168 24.4665V19.4344C24.9168 18.8289 25.1863 18.267 25.6508 17.9L32.9178 12.047C33.2413 11.7878 33.4465 11.4208 33.4901 11.0103C33.5336 10.5998 33.4133 10.1996 33.1562 9.86583L33.0381 9.71447C32.499 9.05512 31.5576 8.94732 30.8879 9.46566L26.3845 12.9635C24.8626 14.1412 22.9613 14.7881 21.0394 14.7881H20.801C18.8457 14.7881 16.9237 14.1184 15.3789 12.8971L11.2218 9.6025C10.888 9.33296 10.465 9.22514 10.0337 9.28942C9.60244 9.3537 9.22303 9.59213 8.97626 9.94877C8.52219 10.6185 8.66318 11.5246 9.28934 12.0118L16.4051 17.6929C16.8799 18.0702 17.1495 18.6321 17.1495 19.2272V24.4438C17.1495 24.7237 16.9235 24.9622 16.6311 24.9622C16.3388 24.9622 16.1128 24.7362 16.1128 24.4438V19.2272C16.1128 18.9473 15.9821 18.6756 15.7561 18.4932L8.64035 12.8243C7.59326 12.0032 7.36523 10.4814 8.122 9.38039C8.52217 8.7874 9.15869 8.38723 9.87197 8.27943C10.5748 8.17161 11.2985 8.36651 11.8479 8.80814L16.0051 12.1028C17.3653 13.183 19.0613 13.7656 20.7884 13.7656H21.0269C22.7229 13.7656 24.3962 13.1934 25.7459 12.1463L30.2494 8.64848C31.3732 7.78388 32.9489 7.96843 33.8343 9.06938C33.8343 9.06938 33.8343 9.07975 33.8447 9.07975L33.9525 9.23111C34.8378 10.3321 34.6554 11.9514 33.5523 12.8388L26.2852 18.6919C26.0592 18.864 25.939 19.1356 25.939 19.4259V24.4808C25.9494 24.7607 25.713 24.9888 25.431 24.9888L25.4351 24.9849Z" fill="black"/>
<path fill-rule="evenodd" clip-rule="evenodd" d="M3.57713 30.8379C3.46932 30.8379 3.3615 30.8047 3.27442 30.7405C3.11269 30.6223 3.03597 30.4274 3.06915 30.2428L3.6518 26.8093L1.1575 24.3792C1.01651 24.2383 0.962602 24.0454 1.02688 23.8505C1.09115 23.666 1.24251 23.5271 1.43742 23.5043L4.88135 23.0067L6.42606 19.8758C6.51314 19.7037 6.6956 19.5959 6.8905 19.5959C7.0854 19.5959 7.26786 19.7037 7.35494 19.8758L8.89965 23.0067L12.3436 23.5043C12.5385 23.5374 12.7002 23.666 12.7541 23.8505C12.8184 24.0351 12.7645 24.2403 12.6235 24.3792L10.1292 26.7989L10.7119 30.2325C10.745 30.4274 10.6683 30.6223 10.5066 30.7301C10.3449 30.8483 10.1396 30.8607 9.96751 30.7737L6.89057 29.1543L3.81363 30.7737C3.73691 30.8276 3.66227 30.8379 3.57518 30.8379L3.57713 30.8379ZM6.90286 28.0741C6.98994 28.0741 7.06459 28.0948 7.1413 28.128L9.53814 29.3907L9.08407 26.7118C9.05089 26.5501 9.11724 26.378 9.23543 26.2578L11.1803 24.3668L8.50145 23.977C8.33972 23.9563 8.18837 23.8464 8.11165 23.6971L6.90287 21.2567L5.6941 23.6971C5.61739 23.8485 5.47847 23.9563 5.3043 23.977L2.62545 24.3668L4.57032 26.2578C4.68851 26.3759 4.74242 26.5501 4.72168 26.7118L4.26761 29.3907L6.66445 28.128C6.72872 28.0948 6.81578 28.0741 6.90286 28.0741Z" fill="black"/>
<path fill-rule="evenodd" clip-rule="evenodd" d="M31.7961 30.8379C31.6883 30.8379 31.5805 30.8047 31.4934 30.7405C31.3317 30.6223 31.255 30.4274 31.2881 30.2428L31.8708 26.8093L29.3765 24.3896C29.2355 24.2486 29.1816 24.0558 29.2459 23.8609C29.3101 23.6763 29.4615 23.5374 29.6564 23.5146L33.1003 23.017L34.6451 19.8862C34.7321 19.7141 34.9146 19.6063 35.1095 19.6063C35.3044 19.6063 35.4869 19.7141 35.5739 19.8862L37.1186 23.017L40.5626 23.5146C40.7575 23.5478 40.9192 23.6764 40.9731 23.8609C41.0374 24.0454 40.9835 24.2507 40.8425 24.3896L38.3482 26.8093L38.9309 30.2428C38.964 30.4377 38.8873 30.6326 38.7256 30.7405C38.5639 30.8586 38.3586 30.8711 38.1865 30.784L35.1096 29.1647L32.0326 30.784C31.9559 30.8275 31.8813 30.8379 31.7942 30.8379H31.7961ZM35.1219 28.0741C35.2089 28.0741 35.2836 28.0948 35.3603 28.128L37.7571 29.3907L37.3031 26.7118C37.2699 26.5501 37.3362 26.378 37.4544 26.2578L39.3993 24.3668L36.7204 23.977C36.5587 23.9563 36.4074 23.8464 36.3306 23.6971L35.1219 21.2567L33.9131 23.6971C33.8364 23.8485 33.6975 23.9563 33.5233 23.977L30.8444 24.3668L32.7893 26.2578C32.9075 26.3759 32.9614 26.5501 32.9407 26.7118L32.4866 29.3907L34.8834 28.128C34.9477 28.0948 35.0348 28.0741 35.1219 28.0741Z" fill="black"/>
<path fill-rule="evenodd" clip-rule="evenodd" d="M16.0608 38.1156C15.953 38.1156 15.8452 38.0824 15.7581 38.0181C15.5964 37.9 15.5197 37.7051 15.5528 37.5205L16.4714 32.142L12.5506 28.3187C12.4096 28.1777 12.3557 27.9724 12.4199 27.79C12.4842 27.6054 12.6356 27.4665 12.8305 27.4437L18.2398 26.6558L20.647 21.7647C20.7341 21.5926 20.9166 21.4848 21.1115 21.4848C21.3064 21.4848 21.4888 21.5926 21.5759 21.7647L23.9956 26.6558L29.3948 27.4437C29.5897 27.4769 29.7514 27.6054 29.8053 27.79C29.8696 27.9745 29.8157 28.1798 29.6747 28.3187L25.7663 32.142L26.6849 37.5205C26.718 37.7154 26.6413 37.9103 26.4796 38.0181C26.3179 38.1363 26.1126 38.1488 25.9405 38.0617L21.1136 35.5239L16.2867 38.0617C16.2224 38.0949 16.1353 38.1156 16.0586 38.1156H16.0608ZM21.1262 34.4229C21.2132 34.4229 21.2879 34.4436 21.3646 34.4768L25.5114 36.658L24.7235 32.0468C24.6903 31.885 24.7442 31.7129 24.8749 31.5927L28.2338 28.3105L23.6018 27.6408C23.44 27.6201 23.2887 27.5102 23.212 27.3609L21.1386 23.1601L19.0652 27.3609C18.9885 27.5122 18.8496 27.6201 18.6754 27.6408L14.031 28.3105L17.4003 31.5927C17.5185 31.7109 17.5724 31.885 17.5516 32.0468L16.7637 36.658L20.9105 34.4768C20.9645 34.4436 21.0411 34.4229 21.1262 34.4229Z" fill="black"/>
<path fill-rule="evenodd" clip-rule="evenodd" d="M21.1161 12.7475C17.8753 12.7475 15.2423 10.1122 15.2423 6.87374C15.2423 3.63299 17.8776 1 21.1161 1C24.3568 1 26.9898 3.63527 26.9898 6.87374C26.9898 10.1145 24.3545 12.7475 21.1161 12.7475ZM21.1161 2.03398C18.4497 2.03398 16.2664 4.20481 16.2664 6.88366C16.2664 9.55004 18.4372 11.7333 21.1161 11.7333C23.7949 11.7333 25.9658 9.56252 25.9658 6.88366C25.9658 4.20481 23.7949 2.03398 21.1161 2.03398Z" stroke="black" stroke-width="0.4" mask="url(#path-1-outside-1_306_5148)"/>
<path fill-rule="evenodd" clip-rule="evenodd" d="M25.4351 24.9849C25.1552 24.9849 24.9168 24.7589 24.9168 24.4665V19.4344C24.9168 18.8289 25.1863 18.267 25.6508 17.9L32.9178 12.047C33.2413 11.7878 33.4465 11.4208 33.4901 11.0103C33.5336 10.5998 33.4133 10.1996 33.1562 9.86583L33.0381 9.71447C32.499 9.05512 31.5576 8.94732 30.8879 9.46566L26.3845 12.9635C24.8626 14.1412 22.9613 14.7881 21.0394 14.7881H20.801C18.8457 14.7881 16.9237 14.1184 15.3789 12.8971L11.2218 9.6025C10.888 9.33296 10.465 9.22514 10.0337 9.28942C9.60244 9.3537 9.22303 9.59213 8.97626 9.94877C8.52219 10.6185 8.66318 11.5246 9.28934 12.0118L16.4051 17.6929C16.8799 18.0702 17.1495 18.6321 17.1495 19.2272V24.4438C17.1495 24.7237 16.9235 24.9622 16.6311 24.9622C16.3388 24.9622 16.1128 24.7362 16.1128 24.4438V19.2272C16.1128 18.9473 15.9821 18.6756 15.7561 18.4932L8.64035 12.8243C7.59326 12.0032 7.36523 10.4814 8.122 9.38039C8.52217 8.7874 9.15869 8.38723 9.87197 8.27943C10.5748 8.17161 11.2985 8.36651 11.8479 8.80814L16.0051 12.1028C17.3653 13.183 19.0613 13.7656 20.7884 13.7656H21.0269C22.7229 13.7656 24.3962 13.1934 25.7459 12.1463L30.2494 8.64848C31.3732 7.78388 32.9489 7.96843 33.8343 9.06938C33.8343 9.06938 33.8343 9.07975 33.8447 9.07975L33.9525 9.23111C34.8378 10.3321 34.6554 11.9514 33.5523 12.8388L26.2852 18.6919C26.0592 18.864 25.939 19.1356 25.939 19.4259V24.4808C25.9494 24.7607 25.713 24.9888 25.431 24.9888L25.4351 24.9849Z" stroke="black" stroke-width="0.4" mask="url(#path-1-outside-1_306_5148)"/>
<path fill-rule="evenodd" clip-rule="evenodd" d="M3.57713 30.8379C3.46932 30.8379 3.3615 30.8047 3.27442 30.7405C3.11269 30.6223 3.03597 30.4274 3.06915 30.2428L3.6518 26.8093L1.1575 24.3792C1.01651 24.2383 0.962602 24.0454 1.02688 23.8505C1.09115 23.666 1.24251 23.5271 1.43742 23.5043L4.88135 23.0067L6.42606 19.8758C6.51314 19.7037 6.6956 19.5959 6.8905 19.5959C7.0854 19.5959 7.26786 19.7037 7.35494 19.8758L8.89965 23.0067L12.3436 23.5043C12.5385 23.5374 12.7002 23.666 12.7541 23.8505C12.8184 24.0351 12.7645 24.2403 12.6235 24.3792L10.1292 26.7989L10.7119 30.2325C10.745 30.4274 10.6683 30.6223 10.5066 30.7301C10.3449 30.8483 10.1396 30.8607 9.96751 30.7737L6.89057 29.1543L3.81363 30.7737C3.73691 30.8276 3.66227 30.8379 3.57518 30.8379L3.57713 30.8379ZM6.90286 28.0741C6.98994 28.0741 7.06459 28.0948 7.1413 28.128L9.53814 29.3907L9.08407 26.7118C9.05089 26.5501 9.11724 26.378 9.23543 26.2578L11.1803 24.3668L8.50145 23.977C8.33972 23.9563 8.18837 23.8464 8.11165 23.6971L6.90287 21.2567L5.6941 23.6971C5.61739 23.8485 5.47847 23.9563 5.3043 23.977L2.62545 24.3668L4.57032 26.2578C4.68851 26.3759 4.74242 26.5501 4.72168 26.7118L4.26761 29.3907L6.66445 28.128C6.72872 28.0948 6.81578 28.0741 6.90286 28.0741Z" stroke="black" stroke-width="0.4" mask="url(#path-1-outside-1_306_5148)"/>
<path fill-rule="evenodd" clip-rule="evenodd" d="M31.7961 30.8379C31.6883 30.8379 31.5805 30.8047 31.4934 30.7405C31.3317 30.6223 31.255 30.4274 31.2881 30.2428L31.8708 26.8093L29.3765 24.3896C29.2355 24.2486 29.1816 24.0558 29.2459 23.8609C29.3101 23.6763 29.4615 23.5374 29.6564 23.5146L33.1003 23.017L34.6451 19.8862C34.7321 19.7141 34.9146 19.6063 35.1095 19.6063C35.3044 19.6063 35.4869 19.7141 35.5739 19.8862L37.1186 23.017L40.5626 23.5146C40.7575 23.5478 40.9192 23.6764 40.9731 23.8609C41.0374 24.0454 40.9835 24.2507 40.8425 24.3896L38.3482 26.8093L38.9309 30.2428C38.964 30.4377 38.8873 30.6326 38.7256 30.7405C38.5639 30.8586 38.3586 30.8711 38.1865 30.784L35.1096 29.1647L32.0326 30.784C31.9559 30.8275 31.8813 30.8379 31.7942 30.8379H31.7961ZM35.1219 28.0741C35.2089 28.0741 35.2836 28.0948 35.3603 28.128L37.7571 29.3907L37.3031 26.7118C37.2699 26.5501 37.3362 26.378 37.4544 26.2578L39.3993 24.3668L36.7204 23.977C36.5587 23.9563 36.4074 23.8464 36.3306 23.6971L35.1219 21.2567L33.9131 23.6971C33.8364 23.8485 33.6975 23.9563 33.5233 23.977L30.8444 24.3668L32.7893 26.2578C32.9075 26.3759 32.9614 26.5501 32.9407 26.7118L32.4866 29.3907L34.8834 28.128C34.9477 28.0948 35.0348 28.0741 35.1219 28.0741Z" stroke="black" stroke-width="0.4" mask="url(#path-1-outside-1_306_5148)"/>
<path fill-rule="evenodd" clip-rule="evenodd" d="M16.0608 38.1156C15.953 38.1156 15.8452 38.0824 15.7581 38.0181C15.5964 37.9 15.5197 37.7051 15.5528 37.5205L16.4714 32.142L12.5506 28.3187C12.4096 28.1777 12.3557 27.9724 12.4199 27.79C12.4842 27.6054 12.6356 27.4665 12.8305 27.4437L18.2398 26.6558L20.647 21.7647C20.7341 21.5926 20.9166 21.4848 21.1115 21.4848C21.3064 21.4848 21.4888 21.5926 21.5759 21.7647L23.9956 26.6558L29.3948 27.4437C29.5897 27.4769 29.7514 27.6054 29.8053 27.79C29.8696 27.9745 29.8157 28.1798 29.6747 28.3187L25.7663 32.142L26.6849 37.5205C26.718 37.7154 26.6413 37.9103 26.4796 38.0181C26.3179 38.1363 26.1126 38.1488 25.9405 38.0617L21.1136 35.5239L16.2867 38.0617C16.2224 38.0949 16.1353 38.1156 16.0586 38.1156H16.0608ZM21.1262 34.4229C21.2132 34.4229 21.2879 34.4436 21.3646 34.4768L25.5114 36.658L24.7235 32.0468C24.6903 31.885 24.7442 31.7129 24.8749 31.5927L28.2338 28.3105L23.6018 27.6408C23.44 27.6201 23.2887 27.5102 23.212 27.3609L21.1386 23.1601L19.0652 27.3609C18.9885 27.5122 18.8496 27.6201 18.6754 27.6408L14.031 28.3105L17.4003 31.5927C17.5185 31.7109 17.5724 31.885 17.5516 32.0468L16.7637 36.658L20.9105 34.4768C20.9645 34.4436 21.0411 34.4229 21.1262 34.4229Z" stroke="black" stroke-width="0.4" mask="url(#path-1-outside-1_306_5148)"/>
</svg>
