<svg width="42" height="33" viewBox="0 0 42 33" fill="none" xmlns="http://www.w3.org/2000/svg">
<mask id="path-1-outside-1_306_5145" maskUnits="userSpaceOnUse" x="0" y="0" width="42" height="33" fill="black">
<rect fill="white" width="42" height="33"/>
<path d="M40.7827 28.8734C40.7728 28.8491 40.7589 28.8268 40.7431 28.8066L35.7896 22.4285C38.2177 15.757 35.992 8.21463 30.3242 4.02544C26.9539 1.53498 22.8356 0.532728 18.7272 1.20294C14.6189 1.87315 11.0126 4.13683 8.5724 7.57692C5.55709 11.8269 4.79731 17.2916 6.51722 22.2339L1.25446 29.0127C1.23859 29.033 1.2247 29.0553 1.21478 29.0796C0.80613 29.9907 0.990619 30.9059 1.68295 31.4121C1.9944 31.6388 2.35346 31.7502 2.71448 31.7502C3.18661 31.7502 3.6647 31.5599 4.04756 31.1914C4.06542 31.1732 4.08129 31.1549 4.09517 31.1327L7.89606 25.1879C8.96928 26.9859 10.3619 28.5287 12.052 29.778C14.8075 31.8149 18.0014 32.7949 21.1673 32.7949C25.9957 32.7949 30.7609 30.515 33.8039 26.2286C33.9983 25.9552 34.1808 25.6718 34.3594 25.3863L37.9043 30.9299C37.9182 30.9522 37.9341 30.9704 37.952 30.9886C38.3348 31.3591 38.8109 31.5474 39.285 31.5474C39.6461 31.5474 40.0052 31.4361 40.3166 31.2093C41.0109 30.7031 41.1934 29.7879 40.7847 28.8768L40.7827 28.8734ZM9.09447 7.95957C11.4333 4.66123 14.891 2.49267 18.8308 1.84889C22.7705 1.20704 26.7181 2.16678 29.948 4.55601C35.2722 8.49216 37.4229 15.5162 35.3138 21.8171L33.5344 19.5271C34.5461 14.5624 32.6179 9.45377 28.5869 6.47334C25.8572 4.4567 22.5228 3.64478 19.1959 4.18737C15.869 4.72996 12.9489 6.56441 10.9714 9.34845C8.94004 12.2094 8.15446 15.8277 8.79723 19.2979L6.99399 21.6203C5.5181 16.9857 6.28185 11.9238 9.0928 7.96112L9.09447 7.95957ZM30.3227 19.0696L32.12 21.88C31.7848 22.6453 31.3721 23.3823 30.8861 24.0667C29.0095 26.7111 26.2382 28.4503 23.0801 28.9646C19.9219 29.4789 16.758 28.7095 14.167 26.7941C12.3876 25.4779 11.0069 23.6982 10.1598 21.6431L11.6814 19.2619C11.8321 19.2903 11.9829 19.3105 12.1376 19.3105C13.074 19.3105 14.0817 18.7841 15.0914 17.7596C15.1172 17.7393 15.145 17.7231 15.1648 17.6948C15.1807 17.6705 15.1886 17.6442 15.1986 17.6199C15.2918 17.4943 15.4426 17.2817 15.7104 16.9031C16.2241 16.1742 17.3212 14.6131 19.6263 11.3191C19.6382 11.3008 19.6441 11.2786 19.6521 11.2604C19.66 11.2401 19.6739 11.2219 19.6778 11.2016C19.6818 11.1794 19.6798 11.1591 19.6798 11.1368C19.6798 11.1166 19.6838 11.0964 19.6818 11.0761C19.6778 11.0559 19.6679 11.0356 19.66 11.0154C19.6521 10.9971 19.6501 10.9749 19.6382 10.9587C19.6263 10.9404 19.6084 10.9263 19.5945 10.9101C19.5806 10.8939 19.5707 10.8777 19.5529 10.8635L19.1462 10.5638C19.0986 10.5294 19.0431 10.5071 18.9835 10.5031C18.7693 10.4849 18.6721 10.4768 16.4205 13.3256C15.4386 14.5688 14.4705 15.8302 14.0142 16.4417L13.5123 16.0711C13.9845 15.403 14.9426 14.0383 15.8135 12.7708C16.4066 11.9062 16.8708 11.2158 17.1942 10.7177C17.3846 10.4241 17.5274 10.1933 17.6207 10.0313C17.7456 9.81469 17.9163 9.51705 17.6524 9.32266L17.2457 9.023C17.1981 8.98858 17.1426 8.96631 17.0831 8.96226C16.8549 8.94404 16.7696 8.93594 14.5835 11.9164C13.6115 13.2426 12.6474 14.589 12.2526 15.1438L11.7666 14.7855C12.205 14.1396 13.1076 12.7607 13.9428 11.4466C14.4804 10.6003 14.9248 9.88355 15.2303 9.37127C15.4069 9.07566 15.5398 8.84081 15.6251 8.67681C15.7381 8.46016 15.8929 8.16455 15.639 7.97622L15.2323 7.67656C15.2144 7.66441 15.1946 7.66036 15.1767 7.65024C15.1569 7.64012 15.1391 7.62797 15.1172 7.62189C15.0954 7.61582 15.0756 7.61987 15.0538 7.61987C15.0339 7.61987 15.0141 7.61379 14.9942 7.61784C14.9724 7.62189 14.9526 7.63202 14.9327 7.64012C14.9149 7.64619 14.8951 7.65024 14.8792 7.66036C14.8613 7.67251 14.8474 7.69074 14.8296 7.70491C14.8137 7.71908 14.7978 7.72921 14.784 7.7454L10.2233 14.0463C10.2114 14.0625 10.2015 14.0807 10.1916 14.0989C9.45361 15.658 9.35046 16.9356 9.86622 17.9096L9.32664 18.604C8.89815 15.4879 9.66785 12.2928 11.483 9.73372C13.3596 7.08938 16.1309 5.35015 19.289 4.83586C22.4472 4.31955 25.6111 5.09098 28.2021 7.00639C31.88 9.72362 33.7112 14.3098 32.9969 18.8452L32.132 17.7296C33.219 16.0612 32.9215 13.3602 31.3742 11.1814C30.4696 9.90586 29.2635 8.96233 27.9819 8.52496C26.6627 8.07546 25.4149 8.21112 24.4707 8.90967C23.5264 9.60823 23.0106 10.7745 23.0185 12.1938C23.0245 13.5727 23.5284 15.0366 24.433 16.3121C25.7264 18.1364 27.6249 19.2258 29.317 19.2237C29.6622 19.2237 29.9934 19.165 30.3148 19.0719L30.3227 19.0696ZM3.57983 30.7363C3.06208 31.2162 2.43124 31.1473 2.05828 30.876C1.62186 30.5581 1.52068 30.0034 1.78453 29.3858L10.5113 18.1483C10.5152 18.1442 10.5152 18.1381 10.5192 18.1341C10.5331 18.1138 10.543 18.0916 10.5529 18.0673C10.5589 18.0511 10.5668 18.0369 10.5708 18.0207C10.5767 17.9944 10.5767 17.966 10.5767 17.9397C10.5767 17.9255 10.5787 17.9134 10.5767 17.8992C10.5728 17.8709 10.5628 17.8446 10.5509 17.8162C10.545 17.8041 10.543 17.7919 10.5371 17.7798C10.5331 17.7737 10.5331 17.7656 10.5291 17.7595C10.0134 16.9739 10.0947 15.8461 10.7692 14.4106L14.8061 8.83225C13.9213 10.3427 11.6083 13.9063 11.0707 14.6677C11.0449 14.7041 11.027 14.7446 11.0171 14.7871C11.0072 14.8276 11.0072 14.8722 11.0131 14.9127C11.027 14.9957 11.0707 15.0726 11.1421 15.1273L12.1439 15.8684C12.1776 15.8927 12.2133 15.9068 12.251 15.917C12.2629 15.921 12.2728 15.921 12.2847 15.923C12.3006 15.9251 12.3165 15.9311 12.3324 15.9311C12.3403 15.9311 12.3462 15.9271 12.3542 15.9251C12.3859 15.923 12.4137 15.9149 12.4434 15.9028C12.4573 15.8967 12.4712 15.8947 12.4851 15.8866C12.5268 15.8643 12.5645 15.8339 12.5922 15.7935C14.0781 13.6998 16.3217 10.6121 17.0319 9.76986C16.4685 10.7195 14.2943 13.8578 12.8085 15.9536C12.7053 16.0994 12.7371 16.3059 12.8799 16.4112L13.8995 17.1644C13.9571 17.2069 14.0225 17.2272 14.088 17.2272C14.1872 17.2272 14.2864 17.1806 14.3479 17.0915C14.8795 16.3424 17.4247 13.0582 18.5772 11.6956C15.1929 16.5307 14.7069 17.2071 14.6414 17.2983C13.8797 18.0718 12.743 18.9141 11.6261 18.582C11.6202 18.58 11.6142 18.582 11.6103 18.58C11.5884 18.5739 11.5666 18.5739 11.5428 18.5739C11.523 18.5739 11.5051 18.5719 11.4853 18.5739C11.4654 18.578 11.4456 18.5861 11.4258 18.5922C11.4059 18.6003 11.3881 18.6063 11.3702 18.6165C11.3544 18.6266 11.3405 18.6408 11.3246 18.6549C11.3087 18.6711 11.2909 18.6853 11.277 18.7035L11.2651 18.7157L3.57992 30.7349L3.57983 30.7363ZM33.2845 25.8405C28.454 32.6478 19.0984 34.1743 12.4315 29.2441C10.7274 27.9847 9.33681 26.4115 8.28944 24.575L9.74553 22.2992C10.6481 24.2956 12.0348 26.0288 13.7924 27.3287C15.9686 28.9363 18.5296 29.7786 21.1642 29.7786C21.8347 29.7786 22.5092 29.724 23.1837 29.6146C26.5105 29.072 29.4307 27.2376 31.4082 24.4536C31.8387 23.8461 32.2156 23.2002 32.537 22.5301L33.9752 24.7775C33.7609 25.1399 33.5308 25.4983 33.2868 25.8425L33.2845 25.8405ZM39.9418 30.6715C39.5688 30.9428 38.938 31.0117 38.4202 30.5318L30.7351 18.5126C30.7291 18.5045 30.7212 18.5005 30.7152 18.4924C30.7013 18.4742 30.6855 18.46 30.6696 18.4458C30.6537 18.4316 30.6378 18.4195 30.622 18.4114C30.6041 18.4013 30.5863 18.3932 30.5664 18.3871C30.5466 18.381 30.5287 18.3749 30.5069 18.3729C30.4871 18.3709 30.4672 18.3709 30.4474 18.3729C30.4256 18.3749 30.4057 18.377 30.3839 18.383C30.374 18.3851 30.3641 18.3851 30.3562 18.3871C28.6918 19.0188 26.4243 17.9842 24.9644 15.927C24.1372 14.7608 23.679 13.4345 23.671 12.1893C23.665 10.9866 24.0876 10.0087 24.8592 9.43972C25.6309 8.86872 26.6704 8.76547 27.7892 9.14613C28.9457 9.53893 30.0368 10.3995 30.864 11.5657C32.3142 13.6087 32.578 16.1235 31.4889 17.5406C31.483 17.5487 31.483 17.5568 31.477 17.5649C31.4651 17.5831 31.4552 17.6034 31.4473 17.6236C31.4393 17.6439 31.4334 17.6621 31.4294 17.6823C31.4255 17.7026 31.4255 17.7228 31.4255 17.7451C31.4255 17.7653 31.4255 17.7856 31.4294 17.8058C31.4334 17.8261 31.4393 17.8443 31.4473 17.8645C31.4552 17.8848 31.4651 17.905 31.477 17.9233C31.483 17.9314 31.483 17.9395 31.4889 17.9476L40.2157 29.1851C40.4795 29.8026 40.3784 30.3574 39.9419 30.6753L39.9418 30.6715ZM26.0477 14.7731C26.1509 14.9189 26.1191 15.1254 25.9763 15.2307C25.9188 15.2732 25.8533 15.2935 25.7879 15.2935C25.6887 15.2935 25.5895 15.2469 25.528 15.1578C24.2128 13.3052 24.2366 10.9908 25.5776 10.0008C25.7204 9.89548 25.9228 9.92788 26.0259 10.0737C26.1291 10.2194 26.0973 10.426 25.9545 10.5312C24.8992 11.3108 24.9428 13.2141 26.0497 14.7731L26.0477 14.7731Z"/>
</mask>
<path d="M40.7827 28.8734C40.7728 28.8491 40.7589 28.8268 40.7431 28.8066L35.7896 22.4285C38.2177 15.757 35.992 8.21463 30.3242 4.02544C26.9539 1.53498 22.8356 0.532728 18.7272 1.20294C14.6189 1.87315 11.0126 4.13683 8.5724 7.57692C5.55709 11.8269 4.79731 17.2916 6.51722 22.2339L1.25446 29.0127C1.23859 29.033 1.2247 29.0553 1.21478 29.0796C0.80613 29.9907 0.990619 30.9059 1.68295 31.4121C1.9944 31.6388 2.35346 31.7502 2.71448 31.7502C3.18661 31.7502 3.6647 31.5599 4.04756 31.1914C4.06542 31.1732 4.08129 31.1549 4.09517 31.1327L7.89606 25.1879C8.96928 26.9859 10.3619 28.5287 12.052 29.778C14.8075 31.8149 18.0014 32.7949 21.1673 32.7949C25.9957 32.7949 30.7609 30.515 33.8039 26.2286C33.9983 25.9552 34.1808 25.6718 34.3594 25.3863L37.9043 30.9299C37.9182 30.9522 37.9341 30.9704 37.952 30.9886C38.3348 31.3591 38.8109 31.5474 39.285 31.5474C39.6461 31.5474 40.0052 31.4361 40.3166 31.2093C41.0109 30.7031 41.1934 29.7879 40.7847 28.8768L40.7827 28.8734ZM9.09447 7.95957C11.4333 4.66123 14.891 2.49267 18.8308 1.84889C22.7705 1.20704 26.7181 2.16678 29.948 4.55601C35.2722 8.49216 37.4229 15.5162 35.3138 21.8171L33.5344 19.5271C34.5461 14.5624 32.6179 9.45377 28.5869 6.47334C25.8572 4.4567 22.5228 3.64478 19.1959 4.18737C15.869 4.72996 12.9489 6.56441 10.9714 9.34845C8.94004 12.2094 8.15446 15.8277 8.79723 19.2979L6.99399 21.6203C5.5181 16.9857 6.28185 11.9238 9.0928 7.96112L9.09447 7.95957ZM30.3227 19.0696L32.12 21.88C31.7848 22.6453 31.3721 23.3823 30.8861 24.0667C29.0095 26.7111 26.2382 28.4503 23.0801 28.9646C19.9219 29.4789 16.758 28.7095 14.167 26.7941C12.3876 25.4779 11.0069 23.6982 10.1598 21.6431L11.6814 19.2619C11.8321 19.2903 11.9829 19.3105 12.1376 19.3105C13.074 19.3105 14.0817 18.7841 15.0914 17.7596C15.1172 17.7393 15.145 17.7231 15.1648 17.6948C15.1807 17.6705 15.1886 17.6442 15.1986 17.6199C15.2918 17.4943 15.4426 17.2817 15.7104 16.9031C16.2241 16.1742 17.3212 14.6131 19.6263 11.3191C19.6382 11.3008 19.6441 11.2786 19.6521 11.2604C19.66 11.2401 19.6739 11.2219 19.6778 11.2016C19.6818 11.1794 19.6798 11.1591 19.6798 11.1368C19.6798 11.1166 19.6838 11.0964 19.6818 11.0761C19.6778 11.0559 19.6679 11.0356 19.66 11.0154C19.6521 10.9971 19.6501 10.9749 19.6382 10.9587C19.6263 10.9404 19.6084 10.9263 19.5945 10.9101C19.5806 10.8939 19.5707 10.8777 19.5529 10.8635L19.1462 10.5638C19.0986 10.5294 19.0431 10.5071 18.9835 10.5031C18.7693 10.4849 18.6721 10.4768 16.4205 13.3256C15.4386 14.5688 14.4705 15.8302 14.0142 16.4417L13.5123 16.0711C13.9845 15.403 14.9426 14.0383 15.8135 12.7708C16.4066 11.9062 16.8708 11.2158 17.1942 10.7177C17.3846 10.4241 17.5274 10.1933 17.6207 10.0313C17.7456 9.81469 17.9163 9.51705 17.6524 9.32266L17.2457 9.023C17.1981 8.98858 17.1426 8.96631 17.0831 8.96226C16.8549 8.94404 16.7696 8.93594 14.5835 11.9164C13.6115 13.2426 12.6474 14.589 12.2526 15.1438L11.7666 14.7855C12.205 14.1396 13.1076 12.7607 13.9428 11.4466C14.4804 10.6003 14.9248 9.88355 15.2303 9.37127C15.4069 9.07566 15.5398 8.84081 15.6251 8.67681C15.7381 8.46016 15.8929 8.16455 15.639 7.97622L15.2323 7.67656C15.2144 7.66441 15.1946 7.66036 15.1767 7.65024C15.1569 7.64012 15.1391 7.62797 15.1172 7.62189C15.0954 7.61582 15.0756 7.61987 15.0538 7.61987C15.0339 7.61987 15.0141 7.61379 14.9942 7.61784C14.9724 7.62189 14.9526 7.63202 14.9327 7.64012C14.9149 7.64619 14.8951 7.65024 14.8792 7.66036C14.8613 7.67251 14.8474 7.69074 14.8296 7.70491C14.8137 7.71908 14.7978 7.72921 14.784 7.7454L10.2233 14.0463C10.2114 14.0625 10.2015 14.0807 10.1916 14.0989C9.45361 15.658 9.35046 16.9356 9.86622 17.9096L9.32664 18.604C8.89815 15.4879 9.66785 12.2928 11.483 9.73372C13.3596 7.08938 16.1309 5.35015 19.289 4.83586C22.4472 4.31955 25.6111 5.09098 28.2021 7.00639C31.88 9.72362 33.7112 14.3098 32.9969 18.8452L32.132 17.7296C33.219 16.0612 32.9215 13.3602 31.3742 11.1814C30.4696 9.90586 29.2635 8.96233 27.9819 8.52496C26.6627 8.07546 25.4149 8.21112 24.4707 8.90967C23.5264 9.60823 23.0106 10.7745 23.0185 12.1938C23.0245 13.5727 23.5284 15.0366 24.433 16.3121C25.7264 18.1364 27.6249 19.2258 29.317 19.2237C29.6622 19.2237 29.9934 19.165 30.3148 19.0719L30.3227 19.0696ZM3.57983 30.7363C3.06208 31.2162 2.43124 31.1473 2.05828 30.876C1.62186 30.5581 1.52068 30.0034 1.78453 29.3858L10.5113 18.1483C10.5152 18.1442 10.5152 18.1381 10.5192 18.1341C10.5331 18.1138 10.543 18.0916 10.5529 18.0673C10.5589 18.0511 10.5668 18.0369 10.5708 18.0207C10.5767 17.9944 10.5767 17.966 10.5767 17.9397C10.5767 17.9255 10.5787 17.9134 10.5767 17.8992C10.5728 17.8709 10.5628 17.8446 10.5509 17.8162C10.545 17.8041 10.543 17.7919 10.5371 17.7798C10.5331 17.7737 10.5331 17.7656 10.5291 17.7595C10.0134 16.9739 10.0947 15.8461 10.7692 14.4106L14.8061 8.83225C13.9213 10.3427 11.6083 13.9063 11.0707 14.6677C11.0449 14.7041 11.027 14.7446 11.0171 14.7871C11.0072 14.8276 11.0072 14.8722 11.0131 14.9127C11.027 14.9957 11.0707 15.0726 11.1421 15.1273L12.1439 15.8684C12.1776 15.8927 12.2133 15.9068 12.251 15.917C12.2629 15.921 12.2728 15.921 12.2847 15.923C12.3006 15.9251 12.3165 15.9311 12.3324 15.9311C12.3403 15.9311 12.3462 15.9271 12.3542 15.9251C12.3859 15.923 12.4137 15.9149 12.4434 15.9028C12.4573 15.8967 12.4712 15.8947 12.4851 15.8866C12.5268 15.8643 12.5645 15.8339 12.5922 15.7935C14.0781 13.6998 16.3217 10.6121 17.0319 9.76986C16.4685 10.7195 14.2943 13.8578 12.8085 15.9536C12.7053 16.0994 12.7371 16.3059 12.8799 16.4112L13.8995 17.1644C13.9571 17.2069 14.0225 17.2272 14.088 17.2272C14.1872 17.2272 14.2864 17.1806 14.3479 17.0915C14.8795 16.3424 17.4247 13.0582 18.5772 11.6956C15.1929 16.5307 14.7069 17.2071 14.6414 17.2983C13.8797 18.0718 12.743 18.9141 11.6261 18.582C11.6202 18.58 11.6142 18.582 11.6103 18.58C11.5884 18.5739 11.5666 18.5739 11.5428 18.5739C11.523 18.5739 11.5051 18.5719 11.4853 18.5739C11.4654 18.578 11.4456 18.5861 11.4258 18.5922C11.4059 18.6003 11.3881 18.6063 11.3702 18.6165C11.3544 18.6266 11.3405 18.6408 11.3246 18.6549C11.3087 18.6711 11.2909 18.6853 11.277 18.7035L11.2651 18.7157L3.57992 30.7349L3.57983 30.7363ZM33.2845 25.8405C28.454 32.6478 19.0984 34.1743 12.4315 29.2441C10.7274 27.9847 9.33681 26.4115 8.28944 24.575L9.74553 22.2992C10.6481 24.2956 12.0348 26.0288 13.7924 27.3287C15.9686 28.9363 18.5296 29.7786 21.1642 29.7786C21.8347 29.7786 22.5092 29.724 23.1837 29.6146C26.5105 29.072 29.4307 27.2376 31.4082 24.4536C31.8387 23.8461 32.2156 23.2002 32.537 22.5301L33.9752 24.7775C33.7609 25.1399 33.5308 25.4983 33.2868 25.8425L33.2845 25.8405ZM39.9418 30.6715C39.5688 30.9428 38.938 31.0117 38.4202 30.5318L30.7351 18.5126C30.7291 18.5045 30.7212 18.5005 30.7152 18.4924C30.7013 18.4742 30.6855 18.46 30.6696 18.4458C30.6537 18.4316 30.6378 18.4195 30.622 18.4114C30.6041 18.4013 30.5863 18.3932 30.5664 18.3871C30.5466 18.381 30.5287 18.3749 30.5069 18.3729C30.4871 18.3709 30.4672 18.3709 30.4474 18.3729C30.4256 18.3749 30.4057 18.377 30.3839 18.383C30.374 18.3851 30.3641 18.3851 30.3562 18.3871C28.6918 19.0188 26.4243 17.9842 24.9644 15.927C24.1372 14.7608 23.679 13.4345 23.671 12.1893C23.665 10.9866 24.0876 10.0087 24.8592 9.43972C25.6309 8.86872 26.6704 8.76547 27.7892 9.14613C28.9457 9.53893 30.0368 10.3995 30.864 11.5657C32.3142 13.6087 32.578 16.1235 31.4889 17.5406C31.483 17.5487 31.483 17.5568 31.477 17.5649C31.4651 17.5831 31.4552 17.6034 31.4473 17.6236C31.4393 17.6439 31.4334 17.6621 31.4294 17.6823C31.4255 17.7026 31.4255 17.7228 31.4255 17.7451C31.4255 17.7653 31.4255 17.7856 31.4294 17.8058C31.4334 17.8261 31.4393 17.8443 31.4473 17.8645C31.4552 17.8848 31.4651 17.905 31.477 17.9233C31.483 17.9314 31.483 17.9395 31.4889 17.9476L40.2157 29.1851C40.4795 29.8026 40.3784 30.3574 39.9419 30.6753L39.9418 30.6715ZM26.0477 14.7731C26.1509 14.9189 26.1191 15.1254 25.9763 15.2307C25.9188 15.2732 25.8533 15.2935 25.7879 15.2935C25.6887 15.2935 25.5895 15.2469 25.528 15.1578C24.2128 13.3052 24.2366 10.9908 25.5776 10.0008C25.7204 9.89548 25.9228 9.92788 26.0259 10.0737C26.1291 10.2194 26.0973 10.426 25.9545 10.5312C24.8992 11.3108 24.9428 13.2141 26.0497 14.7731L26.0477 14.7731Z" fill="black"/>
<path d="M40.7827 28.8734C40.7728 28.8491 40.7589 28.8268 40.7431 28.8066L35.7896 22.4285C38.2177 15.757 35.992 8.21463 30.3242 4.02544C26.9539 1.53498 22.8356 0.532728 18.7272 1.20294C14.6189 1.87315 11.0126 4.13683 8.5724 7.57692C5.55709 11.8269 4.79731 17.2916 6.51722 22.2339L1.25446 29.0127C1.23859 29.033 1.2247 29.0553 1.21478 29.0796C0.80613 29.9907 0.990619 30.9059 1.68295 31.4121C1.9944 31.6388 2.35346 31.7502 2.71448 31.7502C3.18661 31.7502 3.6647 31.5599 4.04756 31.1914C4.06542 31.1732 4.08129 31.1549 4.09517 31.1327L7.89606 25.1879C8.96928 26.9859 10.3619 28.5287 12.052 29.778C14.8075 31.8149 18.0014 32.7949 21.1673 32.7949C25.9957 32.7949 30.7609 30.515 33.8039 26.2286C33.9983 25.9552 34.1808 25.6718 34.3594 25.3863L37.9043 30.9299C37.9182 30.9522 37.9341 30.9704 37.952 30.9886C38.3348 31.3591 38.8109 31.5474 39.285 31.5474C39.6461 31.5474 40.0052 31.4361 40.3166 31.2093C41.0109 30.7031 41.1934 29.7879 40.7847 28.8768L40.7827 28.8734ZM9.09447 7.95957C11.4333 4.66123 14.891 2.49267 18.8308 1.84889C22.7705 1.20704 26.7181 2.16678 29.948 4.55601C35.2722 8.49216 37.4229 15.5162 35.3138 21.8171L33.5344 19.5271C34.5461 14.5624 32.6179 9.45377 28.5869 6.47334C25.8572 4.4567 22.5228 3.64478 19.1959 4.18737C15.869 4.72996 12.9489 6.56441 10.9714 9.34845C8.94004 12.2094 8.15446 15.8277 8.79723 19.2979L6.99399 21.6203C5.5181 16.9857 6.28185 11.9238 9.0928 7.96112L9.09447 7.95957ZM30.3227 19.0696L32.12 21.88C31.7848 22.6453 31.3721 23.3823 30.8861 24.0667C29.0095 26.7111 26.2382 28.4503 23.0801 28.9646C19.9219 29.4789 16.758 28.7095 14.167 26.7941C12.3876 25.4779 11.0069 23.6982 10.1598 21.6431L11.6814 19.2619C11.8321 19.2903 11.9829 19.3105 12.1376 19.3105C13.074 19.3105 14.0817 18.7841 15.0914 17.7596C15.1172 17.7393 15.145 17.7231 15.1648 17.6948C15.1807 17.6705 15.1886 17.6442 15.1986 17.6199C15.2918 17.4943 15.4426 17.2817 15.7104 16.9031C16.2241 16.1742 17.3212 14.6131 19.6263 11.3191C19.6382 11.3008 19.6441 11.2786 19.6521 11.2604C19.66 11.2401 19.6739 11.2219 19.6778 11.2016C19.6818 11.1794 19.6798 11.1591 19.6798 11.1368C19.6798 11.1166 19.6838 11.0964 19.6818 11.0761C19.6778 11.0559 19.6679 11.0356 19.66 11.0154C19.6521 10.9971 19.6501 10.9749 19.6382 10.9587C19.6263 10.9404 19.6084 10.9263 19.5945 10.9101C19.5806 10.8939 19.5707 10.8777 19.5529 10.8635L19.1462 10.5638C19.0986 10.5294 19.0431 10.5071 18.9835 10.5031C18.7693 10.4849 18.6721 10.4768 16.4205 13.3256C15.4386 14.5688 14.4705 15.8302 14.0142 16.4417L13.5123 16.0711C13.9845 15.403 14.9426 14.0383 15.8135 12.7708C16.4066 11.9062 16.8708 11.2158 17.1942 10.7177C17.3846 10.4241 17.5274 10.1933 17.6207 10.0313C17.7456 9.81469 17.9163 9.51705 17.6524 9.32266L17.2457 9.023C17.1981 8.98858 17.1426 8.96631 17.0831 8.96226C16.8549 8.94404 16.7696 8.93594 14.5835 11.9164C13.6115 13.2426 12.6474 14.589 12.2526 15.1438L11.7666 14.7855C12.205 14.1396 13.1076 12.7607 13.9428 11.4466C14.4804 10.6003 14.9248 9.88355 15.2303 9.37127C15.4069 9.07566 15.5398 8.84081 15.6251 8.67681C15.7381 8.46016 15.8929 8.16455 15.639 7.97622L15.2323 7.67656C15.2144 7.66441 15.1946 7.66036 15.1767 7.65024C15.1569 7.64012 15.1391 7.62797 15.1172 7.62189C15.0954 7.61582 15.0756 7.61987 15.0538 7.61987C15.0339 7.61987 15.0141 7.61379 14.9942 7.61784C14.9724 7.62189 14.9526 7.63202 14.9327 7.64012C14.9149 7.64619 14.8951 7.65024 14.8792 7.66036C14.8613 7.67251 14.8474 7.69074 14.8296 7.70491C14.8137 7.71908 14.7978 7.72921 14.784 7.7454L10.2233 14.0463C10.2114 14.0625 10.2015 14.0807 10.1916 14.0989C9.45361 15.658 9.35046 16.9356 9.86622 17.9096L9.32664 18.604C8.89815 15.4879 9.66785 12.2928 11.483 9.73372C13.3596 7.08938 16.1309 5.35015 19.289 4.83586C22.4472 4.31955 25.6111 5.09098 28.2021 7.00639C31.88 9.72362 33.7112 14.3098 32.9969 18.8452L32.132 17.7296C33.219 16.0612 32.9215 13.3602 31.3742 11.1814C30.4696 9.90586 29.2635 8.96233 27.9819 8.52496C26.6627 8.07546 25.4149 8.21112 24.4707 8.90967C23.5264 9.60823 23.0106 10.7745 23.0185 12.1938C23.0245 13.5727 23.5284 15.0366 24.433 16.3121C25.7264 18.1364 27.6249 19.2258 29.317 19.2237C29.6622 19.2237 29.9934 19.165 30.3148 19.0719L30.3227 19.0696ZM3.57983 30.7363C3.06208 31.2162 2.43124 31.1473 2.05828 30.876C1.62186 30.5581 1.52068 30.0034 1.78453 29.3858L10.5113 18.1483C10.5152 18.1442 10.5152 18.1381 10.5192 18.1341C10.5331 18.1138 10.543 18.0916 10.5529 18.0673C10.5589 18.0511 10.5668 18.0369 10.5708 18.0207C10.5767 17.9944 10.5767 17.966 10.5767 17.9397C10.5767 17.9255 10.5787 17.9134 10.5767 17.8992C10.5728 17.8709 10.5628 17.8446 10.5509 17.8162C10.545 17.8041 10.543 17.7919 10.5371 17.7798C10.5331 17.7737 10.5331 17.7656 10.5291 17.7595C10.0134 16.9739 10.0947 15.8461 10.7692 14.4106L14.8061 8.83225C13.9213 10.3427 11.6083 13.9063 11.0707 14.6677C11.0449 14.7041 11.027 14.7446 11.0171 14.7871C11.0072 14.8276 11.0072 14.8722 11.0131 14.9127C11.027 14.9957 11.0707 15.0726 11.1421 15.1273L12.1439 15.8684C12.1776 15.8927 12.2133 15.9068 12.251 15.917C12.2629 15.921 12.2728 15.921 12.2847 15.923C12.3006 15.9251 12.3165 15.9311 12.3324 15.9311C12.3403 15.9311 12.3462 15.9271 12.3542 15.9251C12.3859 15.923 12.4137 15.9149 12.4434 15.9028C12.4573 15.8967 12.4712 15.8947 12.4851 15.8866C12.5268 15.8643 12.5645 15.8339 12.5922 15.7935C14.0781 13.6998 16.3217 10.6121 17.0319 9.76986C16.4685 10.7195 14.2943 13.8578 12.8085 15.9536C12.7053 16.0994 12.7371 16.3059 12.8799 16.4112L13.8995 17.1644C13.9571 17.2069 14.0225 17.2272 14.088 17.2272C14.1872 17.2272 14.2864 17.1806 14.3479 17.0915C14.8795 16.3424 17.4247 13.0582 18.5772 11.6956C15.1929 16.5307 14.7069 17.2071 14.6414 17.2983C13.8797 18.0718 12.743 18.9141 11.6261 18.582C11.6202 18.58 11.6142 18.582 11.6103 18.58C11.5884 18.5739 11.5666 18.5739 11.5428 18.5739C11.523 18.5739 11.5051 18.5719 11.4853 18.5739C11.4654 18.578 11.4456 18.5861 11.4258 18.5922C11.4059 18.6003 11.3881 18.6063 11.3702 18.6165C11.3544 18.6266 11.3405 18.6408 11.3246 18.6549C11.3087 18.6711 11.2909 18.6853 11.277 18.7035L11.2651 18.7157L3.57992 30.7349L3.57983 30.7363ZM33.2845 25.8405C28.454 32.6478 19.0984 34.1743 12.4315 29.2441C10.7274 27.9847 9.33681 26.4115 8.28944 24.575L9.74553 22.2992C10.6481 24.2956 12.0348 26.0288 13.7924 27.3287C15.9686 28.9363 18.5296 29.7786 21.1642 29.7786C21.8347 29.7786 22.5092 29.724 23.1837 29.6146C26.5105 29.072 29.4307 27.2376 31.4082 24.4536C31.8387 23.8461 32.2156 23.2002 32.537 22.5301L33.9752 24.7775C33.7609 25.1399 33.5308 25.4983 33.2868 25.8425L33.2845 25.8405ZM39.9418 30.6715C39.5688 30.9428 38.938 31.0117 38.4202 30.5318L30.7351 18.5126C30.7291 18.5045 30.7212 18.5005 30.7152 18.4924C30.7013 18.4742 30.6855 18.46 30.6696 18.4458C30.6537 18.4316 30.6378 18.4195 30.622 18.4114C30.6041 18.4013 30.5863 18.3932 30.5664 18.3871C30.5466 18.381 30.5287 18.3749 30.5069 18.3729C30.4871 18.3709 30.4672 18.3709 30.4474 18.3729C30.4256 18.3749 30.4057 18.377 30.3839 18.383C30.374 18.3851 30.3641 18.3851 30.3562 18.3871C28.6918 19.0188 26.4243 17.9842 24.9644 15.927C24.1372 14.7608 23.679 13.4345 23.671 12.1893C23.665 10.9866 24.0876 10.0087 24.8592 9.43972C25.6309 8.86872 26.6704 8.76547 27.7892 9.14613C28.9457 9.53893 30.0368 10.3995 30.864 11.5657C32.3142 13.6087 32.578 16.1235 31.4889 17.5406C31.483 17.5487 31.483 17.5568 31.477 17.5649C31.4651 17.5831 31.4552 17.6034 31.4473 17.6236C31.4393 17.6439 31.4334 17.6621 31.4294 17.6823C31.4255 17.7026 31.4255 17.7228 31.4255 17.7451C31.4255 17.7653 31.4255 17.7856 31.4294 17.8058C31.4334 17.8261 31.4393 17.8443 31.4473 17.8645C31.4552 17.8848 31.4651 17.905 31.477 17.9233C31.483 17.9314 31.483 17.9395 31.4889 17.9476L40.2157 29.1851C40.4795 29.8026 40.3784 30.3574 39.9419 30.6753L39.9418 30.6715ZM26.0477 14.7731C26.1509 14.9189 26.1191 15.1254 25.9763 15.2307C25.9188 15.2732 25.8533 15.2935 25.7879 15.2935C25.6887 15.2935 25.5895 15.2469 25.528 15.1578C24.2128 13.3052 24.2366 10.9908 25.5776 10.0008C25.7204 9.89548 25.9228 9.92788 26.0259 10.0737C26.1291 10.2194 26.0973 10.426 25.9545 10.5312C24.8992 11.3108 24.9428 13.2141 26.0497 14.7731L26.0477 14.7731Z" stroke="black" stroke-width="0.4" mask="url(#path-1-outside-1_306_5145)"/>
</svg>
