<svg width="20" height="21" viewBox="0 0 20 21" fill="none" xmlns="http://www.w3.org/2000/svg">
<path d="M8.93006 3.79293C9.26683 2.75646 10.7332 2.75646 11.0699 3.79293L11.9926 6.63247C12.1432 7.096 12.5751 7.40983 13.0625 7.40983H16.0482C17.138 7.40983 17.5911 8.8044 16.7094 9.44497L14.294 11.1999C13.8997 11.4864 13.7347 11.9942 13.8853 12.4577L14.8079 15.2972C15.1447 16.3337 13.9584 17.1956 13.0767 16.555L10.6613 14.8001C10.267 14.5136 9.73304 14.5136 9.33874 14.8001L6.92328 16.555C6.0416 17.1956 4.85531 16.3337 5.19209 15.2972L6.11471 12.4577C6.26532 11.9942 6.10033 11.4864 5.70603 11.1999L3.29057 9.44497C2.40889 8.8044 2.86201 7.40983 3.95183 7.40983H6.9375C7.42488 7.40983 7.85683 7.096 8.00744 6.63247L8.93006 3.79293Z" fill="#FBBC04"/>
</svg>
