<svg width="24" height="24" viewBox="0 0 24 24" fill="none" xmlns="http://www.w3.org/2000/svg">
<path d="M8.21817 2.71995C7.94478 2.99343 7.79119 3.36429 7.79119 3.75099C7.79119 4.13769 7.94478 4.50855 8.21817 4.78203L15.4369 12.0008L8.21817 19.2195C7.95253 19.4946 7.80554 19.8629 7.80886 20.2453C7.81218 20.6277 7.96555 20.9935 8.23594 21.2638C8.50633 21.5342 8.8721 21.6876 9.25447 21.6909C9.63684 21.6942 10.0052 21.5472 10.2803 21.2816L18.5301 13.0318C18.8034 12.7583 18.957 12.3875 18.957 12.0008C18.957 11.6141 18.8034 11.2432 18.5301 10.9697L10.2803 2.71995C10.0068 2.44655 9.63591 2.29297 9.24922 2.29297C8.86252 2.29297 8.49165 2.44655 8.21817 2.71995Z" fill="white"/>
</svg>
