<svg width="25" height="24" viewBox="0 0 25 24" fill="none" xmlns="http://www.w3.org/2000/svg">
<path d="M16.4478 2.71995C16.7212 2.99343 16.8748 3.36429 16.8748 3.75099C16.8748 4.13769 16.7212 4.50855 16.4478 4.78203L9.22909 12.0008L16.4478 19.2195C16.7135 19.4946 16.8605 19.8629 16.8572 20.2453C16.8538 20.6277 16.7005 20.9935 16.4301 21.2638C16.1597 21.5342 15.7939 21.6876 15.4116 21.6909C15.0292 21.6942 14.6608 21.5472 14.3858 21.2816L6.13596 13.0318C5.86257 12.7583 5.70898 12.3875 5.70898 12.0008C5.70898 11.6141 5.86257 11.2432 6.13596 10.9697L14.3858 2.71995C14.6592 2.44655 15.0301 2.29297 15.4168 2.29297C15.8035 2.29297 16.1744 2.44655 16.4478 2.71995Z" fill="#31383D"/>
</svg>
