<svg width="24" height="24" viewBox="0 0 24 24" fill="none" xmlns="http://www.w3.org/2000/svg">
<path d="M10.9301 3.29293C11.2668 2.25646 12.7332 2.25646 13.0699 3.29293L14.4416 7.51444C14.5922 7.97797 15.0241 8.2918 15.5115 8.2918H19.9503C21.0401 8.2918 21.4932 9.68636 20.6115 10.3269L17.0205 12.936C16.6262 13.2224 16.4612 13.7302 16.6118 14.1938L17.9835 18.4153C18.3203 19.4517 17.134 20.3136 16.2523 19.6731L12.6613 17.064C12.267 16.7775 11.733 16.7775 11.3387 17.064L7.74771 19.6731C6.86604 20.3136 5.67974 19.4517 6.01652 18.4153L7.38817 14.1938C7.53877 13.7302 7.37378 13.2224 6.97949 12.936L3.38846 10.3269C2.50678 9.68636 2.9599 8.2918 4.04972 8.2918H8.48847C8.97585 8.2918 9.4078 7.97797 9.55841 7.51444L10.9301 3.29293Z" fill="#50E3C7"/>
</svg>
