<svg width="408" height="81" viewBox="0 0 408 81" fill="none" xmlns="http://www.w3.org/2000/svg">
<path d="M33.8135 22.592C36.4355 16.0553 37.7465 12.787 40.001 12.787C42.2554 12.787 43.5664 16.0553 46.1884 22.592L46.3105 22.8964C47.7918 26.5893 48.5325 28.4357 50.042 29.558C51.5515 30.6803 53.533 30.8578 57.496 31.2127L58.2125 31.2768C64.6985 31.8577 67.9416 32.1482 68.6355 34.2114C69.3294 36.2747 66.921 38.4659 62.1042 42.8482L60.4966 44.3107C58.0583 46.5291 56.8391 47.6383 56.2708 49.0921C56.1648 49.3633 56.0767 49.6411 56.007 49.9238C55.6335 51.4393 55.9905 53.0485 56.7046 56.2667L56.9268 57.2684C58.2391 63.1829 58.8952 66.1401 57.7496 67.4156C57.3215 67.8923 56.7651 68.2355 56.1471 68.4041C54.4931 68.8554 52.1448 66.9419 47.4483 63.115C44.3644 60.602 42.8225 59.3456 41.0521 59.0629C40.3558 58.9517 39.6462 58.9517 38.9498 59.0629C37.1795 59.3456 35.6375 60.602 32.5536 63.115C27.8571 66.9419 25.5089 68.8554 23.8548 68.4041C23.2368 68.2355 22.6804 67.8923 22.2523 67.4156C21.1067 66.1401 21.7629 63.1829 23.0751 57.2684L23.2974 56.2667C24.0114 53.0485 24.3684 51.4393 23.9949 49.9238C23.9252 49.6411 23.8371 49.3633 23.7311 49.0921C23.1629 47.6383 21.9437 46.5291 19.5053 44.3107L17.8977 42.8482C13.0809 38.4659 10.6725 36.2747 11.3664 34.2114C12.0604 32.1482 15.3034 31.8577 21.7894 31.2768L22.5059 31.2127C26.4689 30.8578 28.4505 30.6803 29.96 29.558C31.4695 28.4357 32.2101 26.5893 33.6914 22.8964L33.8135 22.592Z" fill="#EBEBEB" stroke="#D1D1D1" stroke-width="3"/>
<path d="M115.814 22.592C118.436 16.0553 119.747 12.787 122.001 12.787C124.255 12.787 125.566 16.0553 128.188 22.592L128.311 22.8964C129.792 26.5893 130.532 28.4357 132.042 29.558C133.551 30.6803 135.533 30.8578 139.496 31.2127L140.212 31.2768C146.699 31.8577 149.942 32.1482 150.635 34.2114C151.329 36.2747 148.921 38.4659 144.104 42.8482L142.497 44.3107C140.058 46.5291 138.839 47.6383 138.271 49.0921C138.165 49.3633 138.077 49.6411 138.007 49.9238C137.634 51.4393 137.991 53.0485 138.705 56.2667L138.927 57.2684C140.239 63.1829 140.895 66.1401 139.75 67.4156C139.322 67.8923 138.765 68.2355 138.147 68.4041C136.493 68.8554 134.145 66.9419 129.448 63.115C126.364 60.602 124.822 59.3456 123.052 59.0629C122.356 58.9517 121.646 58.9517 120.95 59.0629C119.179 59.3456 117.638 60.602 114.554 63.115C109.857 66.9419 107.509 68.8554 105.855 68.4041C105.237 68.2355 104.68 67.8923 104.252 67.4156C103.107 66.1401 103.763 63.1829 105.075 57.2684L105.297 56.2667C106.011 53.0485 106.368 51.4393 105.995 49.9238C105.925 49.6411 105.837 49.3633 105.731 49.0921C105.163 47.6383 103.944 46.5291 101.505 44.3107L99.8977 42.8482C95.0809 38.4659 92.6725 36.2747 93.3664 34.2114C94.0604 32.1482 97.3034 31.8577 103.789 31.2768L104.506 31.2127C108.469 30.8578 110.45 30.6803 111.96 29.558C113.469 28.4357 114.21 26.5893 115.691 22.8964L115.814 22.592Z" fill="#EBEBEB" stroke="#D1D1D1" stroke-width="3"/>
<path d="M197.814 22.592C200.436 16.0553 201.747 12.787 204.001 12.787C206.255 12.787 207.566 16.0553 210.188 22.592L210.311 22.8964C211.792 26.5893 212.532 28.4357 214.042 29.558C215.551 30.6803 217.533 30.8578 221.496 31.2127L222.212 31.2768C228.699 31.8577 231.942 32.1482 232.635 34.2114C233.329 36.2747 230.921 38.4659 226.104 42.8482L224.497 44.3107C222.058 46.5291 220.839 47.6383 220.271 49.0921C220.165 49.3633 220.077 49.6411 220.007 49.9238C219.634 51.4393 219.991 53.0485 220.705 56.2667L220.927 57.2684C222.239 63.1829 222.895 66.1401 221.75 67.4156C221.322 67.8923 220.765 68.2355 220.147 68.4041C218.493 68.8554 216.145 66.9419 211.448 63.115C208.364 60.602 206.822 59.3456 205.052 59.0629C204.356 58.9517 203.646 58.9517 202.95 59.0629C201.179 59.3456 199.638 60.602 196.554 63.115C191.857 66.9419 189.509 68.8554 187.855 68.4041C187.237 68.2355 186.68 67.8923 186.252 67.4156C185.107 66.1401 185.763 63.1829 187.075 57.2684L187.297 56.2667C188.011 53.0485 188.368 51.4393 187.995 49.9238C187.925 49.6411 187.837 49.3633 187.731 49.0921C187.163 47.6383 185.944 46.5291 183.505 44.3107L181.898 42.8482C177.081 38.4659 174.672 36.2747 175.366 34.2114C176.06 32.1482 179.303 31.8577 185.789 31.2768L186.506 31.2127C190.469 30.8578 192.45 30.6803 193.96 29.558C195.469 28.4357 196.21 26.5893 197.691 22.8964L197.814 22.592Z" fill="#EBEBEB" stroke="#D1D1D1" stroke-width="3"/>
<path d="M279.814 22.592C282.436 16.0553 283.747 12.787 286.001 12.787C288.255 12.787 289.566 16.0553 292.188 22.592L292.311 22.8964C293.792 26.5893 294.532 28.4357 296.042 29.558C297.551 30.6803 299.533 30.8578 303.496 31.2127L304.212 31.2768C310.699 31.8577 313.942 32.1482 314.635 34.2114C315.329 36.2747 312.921 38.4659 308.104 42.8482L306.497 44.3107C304.058 46.5291 302.839 47.6383 302.271 49.0921C302.165 49.3633 302.077 49.6411 302.007 49.9238C301.634 51.4393 301.991 53.0485 302.705 56.2667L302.927 57.2684C304.239 63.1829 304.895 66.1401 303.75 67.4156C303.322 67.8923 302.765 68.2355 302.147 68.4041C300.493 68.8554 298.145 66.9419 293.448 63.115C290.364 60.602 288.822 59.3456 287.052 59.0629C286.356 58.9517 285.646 58.9517 284.95 59.0629C283.179 59.3456 281.638 60.602 278.554 63.115C273.857 66.9419 271.509 68.8554 269.855 68.4041C269.237 68.2355 268.68 67.8923 268.252 67.4156C267.107 66.1401 267.763 63.1829 269.075 57.2684L269.297 56.2667C270.011 53.0485 270.368 51.4393 269.995 49.9238C269.925 49.6411 269.837 49.3633 269.731 49.0921C269.163 47.6383 267.944 46.5291 265.505 44.3107L263.898 42.8482C259.081 38.4659 256.672 36.2747 257.366 34.2114C258.06 32.1482 261.303 31.8577 267.789 31.2768L268.506 31.2127C272.469 30.8578 274.45 30.6803 275.96 29.558C277.469 28.4357 278.21 26.5893 279.691 22.8964L279.814 22.592Z" fill="#EBEBEB" stroke="#D1D1D1" stroke-width="3"/>
<path d="M361.814 22.592C364.436 16.0553 365.747 12.787 368.001 12.787C370.255 12.787 371.566 16.0553 374.188 22.592L374.311 22.8964C375.792 26.5893 376.532 28.4357 378.042 29.558C379.551 30.6803 381.533 30.8578 385.496 31.2127L386.212 31.2768C392.699 31.8577 395.942 32.1482 396.635 34.2114C397.329 36.2747 394.921 38.4659 390.104 42.8482L388.497 44.3107C386.058 46.5291 384.839 47.6383 384.271 49.0921C384.165 49.3633 384.077 49.6411 384.007 49.9238C383.634 51.4393 383.991 53.0485 384.705 56.2667L384.927 57.2684C386.239 63.1829 386.895 66.1401 385.75 67.4156C385.322 67.8923 384.765 68.2355 384.147 68.4041C382.493 68.8554 380.145 66.9419 375.448 63.115C372.364 60.602 370.822 59.3456 369.052 59.0629C368.356 58.9517 367.646 58.9517 366.95 59.0629C365.179 59.3456 363.638 60.602 360.554 63.115C355.857 66.9419 353.509 68.8554 351.855 68.4041C351.237 68.2355 350.68 67.8923 350.252 67.4156C349.107 66.1401 349.763 63.1829 351.075 57.2684L351.297 56.2667C352.011 53.0485 352.368 51.4393 351.995 49.9238C351.925 49.6411 351.837 49.3633 351.731 49.0921C351.163 47.6383 349.944 46.5291 347.505 44.3107L345.898 42.8482C341.081 38.4659 338.672 36.2747 339.366 34.2114C340.06 32.1482 343.303 31.8577 349.789 31.2768L350.506 31.2127C354.469 30.8578 356.45 30.6803 357.96 29.558C359.469 28.4357 360.21 26.5893 361.691 22.8964L361.814 22.592Z" fill="#EBEBEB" stroke="#D1D1D1" stroke-width="3"/>
</svg>
