<svg width="23" height="36" viewBox="0 0 23 36" fill="none" xmlns="http://www.w3.org/2000/svg">
<mask id="path-1-outside-1_306_5141" maskUnits="userSpaceOnUse" x="-0.335938" y="0" width="23" height="36" fill="black">
<rect fill="white" x="-0.335938" width="23" height="36"/>
<path d="M18.993 11.0408H15.5941V6.65827C15.8433 6.47885 15.9944 6.23464 15.9944 5.95556V2.01337C15.9944 1.43524 15.3565 1 14.5109 1H7.50686C6.66127 1 6.02334 1.43524 6.02334 2.01337V5.95391C6.02334 6.23466 6.17618 6.4822 6.43035 6.66162V11.0408H3.33707C1.86354 11.0408 0.664062 12.2402 0.664062 13.7138V29.0739C0.664062 30.5474 1.8635 31.7469 3.33707 31.7469H5.09801C4.57967 32.0526 4.22749 32.6107 4.22749 33.2553C4.22749 34.2255 5.01661 35.013 5.98512 35.013C6.95528 35.013 7.74274 34.2238 7.74274 33.2553C7.74274 32.6108 7.39055 32.0526 6.87222 31.7469H15.3877C14.9159 32.0625 14.6053 32.5991 14.6053 33.2071C14.6053 34.1773 15.3944 34.9648 16.3629 34.9648C17.3331 34.9648 18.1205 34.1757 18.1205 33.2071C18.1205 32.5991 17.8099 32.0625 17.3381 31.7469H18.9911C20.4646 31.7469 21.6641 30.5475 21.6641 29.0739V13.7138C21.6641 12.2403 20.4646 11.0408 18.9911 11.0408L18.993 11.0408ZM5.98353 34.2007C5.46187 34.2007 5.03824 33.777 5.03824 33.2554C5.03824 32.7337 5.46187 32.3101 5.98353 32.3101C6.50518 32.3101 6.92881 32.7337 6.92881 33.2554C6.92881 33.777 6.50519 34.2007 5.98353 34.2007ZM16.3648 34.1525C15.8431 34.1525 15.4195 33.7289 15.4195 33.2072C15.4195 32.6855 15.8431 32.2619 16.3648 32.2619C16.8864 32.2619 17.31 32.6855 17.31 33.2072C17.31 33.7289 16.8864 34.1525 16.3648 34.1525ZM20.8537 13.7136V15.8085H4.51501C4.62632 14.2087 5.12304 12.3913 6.89062 11.8547H18.993C20.018 11.8547 20.852 12.6886 20.852 13.7136H20.8537ZM6.8358 5.94239V2.48528C6.8358 2.11482 7.13649 1.81413 7.50695 1.81413H14.511C14.8814 1.81413 15.1821 2.11482 15.1821 2.48528V5.94405C15.1423 6.0105 14.903 6.15669 14.511 6.15669C14.1189 6.15669 13.8797 6.00884 13.8398 5.94405V3.56342C13.8398 3.33915 13.6571 3.15641 13.4328 3.15641H8.58372C8.35945 3.15641 8.1767 3.33915 8.1767 3.56342V5.94239C8.13683 6.00884 7.89761 6.15503 7.50556 6.15503C7.1135 6.15503 6.87426 6.00718 6.83441 5.94239H6.8358ZM8.99047 5.95568V3.96878H13.0257V5.95568C13.0257 6.23976 13.1819 6.48895 13.4394 6.66837V11.0407H8.58516V6.66157C8.83767 6.48215 8.99217 6.23462 8.99217 5.95385L8.99047 5.95568ZM14.7816 11.0408H14.2516V6.95242C14.3347 6.96239 14.4211 6.96904 14.5091 6.96904C14.6022 6.96904 14.6919 6.96239 14.7799 6.95076V11.0408L14.7816 11.0408ZM7.50707 6.96739C7.59844 6.96739 7.68649 6.96075 7.77121 6.95078V11.0359H7.24126V6.95078C7.32765 6.96075 7.41404 6.96739 7.50541 6.96739H7.50707ZM3.33561 11.8531H5.25603C4.15127 12.8532 3.79909 14.4397 3.70442 15.8069H1.47498V13.7121C1.47498 12.687 2.30892 11.8531 3.33395 11.8531H3.33561ZM14.9498 30.9327H7.38093V22.5767C7.38093 22.1547 7.63178 21.7992 7.92917 21.7992H14.4016C14.699 21.7992 14.9498 22.1547 14.9498 22.5767L14.9498 30.9327ZM18.9949 30.9327H15.7638V22.5767C15.7638 21.6995 15.1524 20.9868 14.4032 20.9868H7.93074C7.17986 20.9868 6.57017 21.6995 6.57017 22.5767V30.9327H3.33731C2.31228 30.9327 1.47834 30.0988 1.47834 29.0737V16.6209H3.67788C3.67456 17.0894 3.69283 17.5047 3.70778 17.817C3.7111 17.8968 3.71443 17.9699 3.71775 18.0363L2.28407 19.0298C2.17442 19.1062 2.10963 19.2308 2.10963 19.3637V24.6547C2.10963 24.8789 2.29237 25.0617 2.51664 25.0617H5.78437C6.00864 25.0617 6.19139 24.8789 6.19139 24.6547V19.3637C6.19139 19.2291 6.12494 19.1029 6.01197 19.0264L4.53176 18.0247C4.52843 17.9499 4.52511 17.8685 4.52013 17.7771C4.50518 17.4632 4.48856 17.0628 4.49023 16.6192H20.8569V29.072C20.8569 30.0971 20.023 30.931 18.998 30.931L18.9949 30.9327ZM4.12992 18.7372L5.37422 19.5795V24.2478H2.91887V19.5765L4.12992 18.7372ZM13.5743 25.0433C13.5743 25.2676 13.3915 25.4504 13.1672 25.4504H8.70854C8.48427 25.4504 8.30152 25.2676 8.30152 25.0433C8.30152 24.8191 8.48427 24.6363 8.70854 24.6363H13.1672C13.3915 24.6363 13.5743 24.8191 13.5743 25.0433Z"/>
</mask>
<path d="M18.993 11.0408H15.5941V6.65827C15.8433 6.47885 15.9944 6.23464 15.9944 5.95556V2.01337C15.9944 1.43524 15.3565 1 14.5109 1H7.50686C6.66127 1 6.02334 1.43524 6.02334 2.01337V5.95391C6.02334 6.23466 6.17618 6.4822 6.43035 6.66162V11.0408H3.33707C1.86354 11.0408 0.664062 12.2402 0.664062 13.7138V29.0739C0.664062 30.5474 1.8635 31.7469 3.33707 31.7469H5.09801C4.57967 32.0526 4.22749 32.6107 4.22749 33.2553C4.22749 34.2255 5.01661 35.013 5.98512 35.013C6.95528 35.013 7.74274 34.2238 7.74274 33.2553C7.74274 32.6108 7.39055 32.0526 6.87222 31.7469H15.3877C14.9159 32.0625 14.6053 32.5991 14.6053 33.2071C14.6053 34.1773 15.3944 34.9648 16.3629 34.9648C17.3331 34.9648 18.1205 34.1757 18.1205 33.2071C18.1205 32.5991 17.8099 32.0625 17.3381 31.7469H18.9911C20.4646 31.7469 21.6641 30.5475 21.6641 29.0739V13.7138C21.6641 12.2403 20.4646 11.0408 18.9911 11.0408L18.993 11.0408ZM5.98353 34.2007C5.46187 34.2007 5.03824 33.777 5.03824 33.2554C5.03824 32.7337 5.46187 32.3101 5.98353 32.3101C6.50518 32.3101 6.92881 32.7337 6.92881 33.2554C6.92881 33.777 6.50519 34.2007 5.98353 34.2007ZM16.3648 34.1525C15.8431 34.1525 15.4195 33.7289 15.4195 33.2072C15.4195 32.6855 15.8431 32.2619 16.3648 32.2619C16.8864 32.2619 17.31 32.6855 17.31 33.2072C17.31 33.7289 16.8864 34.1525 16.3648 34.1525ZM20.8537 13.7136V15.8085H4.51501C4.62632 14.2087 5.12304 12.3913 6.89062 11.8547H18.993C20.018 11.8547 20.852 12.6886 20.852 13.7136H20.8537ZM6.8358 5.94239V2.48528C6.8358 2.11482 7.13649 1.81413 7.50695 1.81413H14.511C14.8814 1.81413 15.1821 2.11482 15.1821 2.48528V5.94405C15.1423 6.0105 14.903 6.15669 14.511 6.15669C14.1189 6.15669 13.8797 6.00884 13.8398 5.94405V3.56342C13.8398 3.33915 13.6571 3.15641 13.4328 3.15641H8.58372C8.35945 3.15641 8.1767 3.33915 8.1767 3.56342V5.94239C8.13683 6.00884 7.89761 6.15503 7.50556 6.15503C7.1135 6.15503 6.87426 6.00718 6.83441 5.94239H6.8358ZM8.99047 5.95568V3.96878H13.0257V5.95568C13.0257 6.23976 13.1819 6.48895 13.4394 6.66837V11.0407H8.58516V6.66157C8.83767 6.48215 8.99217 6.23462 8.99217 5.95385L8.99047 5.95568ZM14.7816 11.0408H14.2516V6.95242C14.3347 6.96239 14.4211 6.96904 14.5091 6.96904C14.6022 6.96904 14.6919 6.96239 14.7799 6.95076V11.0408L14.7816 11.0408ZM7.50707 6.96739C7.59844 6.96739 7.68649 6.96075 7.77121 6.95078V11.0359H7.24126V6.95078C7.32765 6.96075 7.41404 6.96739 7.50541 6.96739H7.50707ZM3.33561 11.8531H5.25603C4.15127 12.8532 3.79909 14.4397 3.70442 15.8069H1.47498V13.7121C1.47498 12.687 2.30892 11.8531 3.33395 11.8531H3.33561ZM14.9498 30.9327H7.38093V22.5767C7.38093 22.1547 7.63178 21.7992 7.92917 21.7992H14.4016C14.699 21.7992 14.9498 22.1547 14.9498 22.5767L14.9498 30.9327ZM18.9949 30.9327H15.7638V22.5767C15.7638 21.6995 15.1524 20.9868 14.4032 20.9868H7.93074C7.17986 20.9868 6.57017 21.6995 6.57017 22.5767V30.9327H3.33731C2.31228 30.9327 1.47834 30.0988 1.47834 29.0737V16.6209H3.67788C3.67456 17.0894 3.69283 17.5047 3.70778 17.817C3.7111 17.8968 3.71443 17.9699 3.71775 18.0363L2.28407 19.0298C2.17442 19.1062 2.10963 19.2308 2.10963 19.3637V24.6547C2.10963 24.8789 2.29237 25.0617 2.51664 25.0617H5.78437C6.00864 25.0617 6.19139 24.8789 6.19139 24.6547V19.3637C6.19139 19.2291 6.12494 19.1029 6.01197 19.0264L4.53176 18.0247C4.52843 17.9499 4.52511 17.8685 4.52013 17.7771C4.50518 17.4632 4.48856 17.0628 4.49023 16.6192H20.8569V29.072C20.8569 30.0971 20.023 30.931 18.998 30.931L18.9949 30.9327ZM4.12992 18.7372L5.37422 19.5795V24.2478H2.91887V19.5765L4.12992 18.7372ZM13.5743 25.0433C13.5743 25.2676 13.3915 25.4504 13.1672 25.4504H8.70854C8.48427 25.4504 8.30152 25.2676 8.30152 25.0433C8.30152 24.8191 8.48427 24.6363 8.70854 24.6363H13.1672C13.3915 24.6363 13.5743 24.8191 13.5743 25.0433Z" fill="#095143"/>
<path d="M18.993 11.0408H15.5941V6.65827C15.8433 6.47885 15.9944 6.23464 15.9944 5.95556V2.01337C15.9944 1.43524 15.3565 1 14.5109 1H7.50686C6.66127 1 6.02334 1.43524 6.02334 2.01337V5.95391C6.02334 6.23466 6.17618 6.4822 6.43035 6.66162V11.0408H3.33707C1.86354 11.0408 0.664062 12.2402 0.664062 13.7138V29.0739C0.664062 30.5474 1.8635 31.7469 3.33707 31.7469H5.09801C4.57967 32.0526 4.22749 32.6107 4.22749 33.2553C4.22749 34.2255 5.01661 35.013 5.98512 35.013C6.95528 35.013 7.74274 34.2238 7.74274 33.2553C7.74274 32.6108 7.39055 32.0526 6.87222 31.7469H15.3877C14.9159 32.0625 14.6053 32.5991 14.6053 33.2071C14.6053 34.1773 15.3944 34.9648 16.3629 34.9648C17.3331 34.9648 18.1205 34.1757 18.1205 33.2071C18.1205 32.5991 17.8099 32.0625 17.3381 31.7469H18.9911C20.4646 31.7469 21.6641 30.5475 21.6641 29.0739V13.7138C21.6641 12.2403 20.4646 11.0408 18.9911 11.0408L18.993 11.0408ZM5.98353 34.2007C5.46187 34.2007 5.03824 33.777 5.03824 33.2554C5.03824 32.7337 5.46187 32.3101 5.98353 32.3101C6.50518 32.3101 6.92881 32.7337 6.92881 33.2554C6.92881 33.777 6.50519 34.2007 5.98353 34.2007ZM16.3648 34.1525C15.8431 34.1525 15.4195 33.7289 15.4195 33.2072C15.4195 32.6855 15.8431 32.2619 16.3648 32.2619C16.8864 32.2619 17.31 32.6855 17.31 33.2072C17.31 33.7289 16.8864 34.1525 16.3648 34.1525ZM20.8537 13.7136V15.8085H4.51501C4.62632 14.2087 5.12304 12.3913 6.89062 11.8547H18.993C20.018 11.8547 20.852 12.6886 20.852 13.7136H20.8537ZM6.8358 5.94239V2.48528C6.8358 2.11482 7.13649 1.81413 7.50695 1.81413H14.511C14.8814 1.81413 15.1821 2.11482 15.1821 2.48528V5.94405C15.1423 6.0105 14.903 6.15669 14.511 6.15669C14.1189 6.15669 13.8797 6.00884 13.8398 5.94405V3.56342C13.8398 3.33915 13.6571 3.15641 13.4328 3.15641H8.58372C8.35945 3.15641 8.1767 3.33915 8.1767 3.56342V5.94239C8.13683 6.00884 7.89761 6.15503 7.50556 6.15503C7.1135 6.15503 6.87426 6.00718 6.83441 5.94239H6.8358ZM8.99047 5.95568V3.96878H13.0257V5.95568C13.0257 6.23976 13.1819 6.48895 13.4394 6.66837V11.0407H8.58516V6.66157C8.83767 6.48215 8.99217 6.23462 8.99217 5.95385L8.99047 5.95568ZM14.7816 11.0408H14.2516V6.95242C14.3347 6.96239 14.4211 6.96904 14.5091 6.96904C14.6022 6.96904 14.6919 6.96239 14.7799 6.95076V11.0408L14.7816 11.0408ZM7.50707 6.96739C7.59844 6.96739 7.68649 6.96075 7.77121 6.95078V11.0359H7.24126V6.95078C7.32765 6.96075 7.41404 6.96739 7.50541 6.96739H7.50707ZM3.33561 11.8531H5.25603C4.15127 12.8532 3.79909 14.4397 3.70442 15.8069H1.47498V13.7121C1.47498 12.687 2.30892 11.8531 3.33395 11.8531H3.33561ZM14.9498 30.9327H7.38093V22.5767C7.38093 22.1547 7.63178 21.7992 7.92917 21.7992H14.4016C14.699 21.7992 14.9498 22.1547 14.9498 22.5767L14.9498 30.9327ZM18.9949 30.9327H15.7638V22.5767C15.7638 21.6995 15.1524 20.9868 14.4032 20.9868H7.93074C7.17986 20.9868 6.57017 21.6995 6.57017 22.5767V30.9327H3.33731C2.31228 30.9327 1.47834 30.0988 1.47834 29.0737V16.6209H3.67788C3.67456 17.0894 3.69283 17.5047 3.70778 17.817C3.7111 17.8968 3.71443 17.9699 3.71775 18.0363L2.28407 19.0298C2.17442 19.1062 2.10963 19.2308 2.10963 19.3637V24.6547C2.10963 24.8789 2.29237 25.0617 2.51664 25.0617H5.78437C6.00864 25.0617 6.19139 24.8789 6.19139 24.6547V19.3637C6.19139 19.2291 6.12494 19.1029 6.01197 19.0264L4.53176 18.0247C4.52843 17.9499 4.52511 17.8685 4.52013 17.7771C4.50518 17.4632 4.48856 17.0628 4.49023 16.6192H20.8569V29.072C20.8569 30.0971 20.023 30.931 18.998 30.931L18.9949 30.9327ZM4.12992 18.7372L5.37422 19.5795V24.2478H2.91887V19.5765L4.12992 18.7372ZM13.5743 25.0433C13.5743 25.2676 13.3915 25.4504 13.1672 25.4504H8.70854C8.48427 25.4504 8.30152 25.2676 8.30152 25.0433C8.30152 24.8191 8.48427 24.6363 8.70854 24.6363H13.1672C13.3915 24.6363 13.5743 24.8191 13.5743 25.0433Z" stroke="#095143" stroke-width="0.8" mask="url(#path-1-outside-1_306_5141)"/>
</svg>
