<svg width="32" height="34" viewBox="0 0 32 34" fill="none" xmlns="http://www.w3.org/2000/svg">
<mask id="path-1-outside-1_306_5151" maskUnits="userSpaceOnUse" x="0" y="0" width="32" height="34" fill="black">
<rect fill="white" width="32" height="34"/>
<path fill-rule="evenodd" clip-rule="evenodd" d="M28.4742 33H4.78378C3.39041 33 2.258 31.87 2.258 30.4834V29.0134C2.258 28.83 2.40855 28.68 2.59255 28.68C2.77654 28.68 2.92709 28.83 2.92709 29.0134V30.4834C2.92709 31.505 3.76009 32.3333 4.78378 32.3333H28.4742C29.4996 32.3333 30.3309 31.5033 30.3309 30.4834V3.51864C30.3309 2.49699 29.4979 1.66867 28.4742 1.66867H4.78378C3.75842 1.66867 2.92709 2.49866 2.92709 3.51864V4.98862C2.92709 5.17196 2.77654 5.32196 2.59255 5.32196C2.40855 5.32196 2.258 5.17196 2.258 4.98862V3.51864C2.258 2.13032 3.39208 1.00201 4.78378 1.00201H28.4742C29.8676 1.00201 31 2.13198 31 3.51864V30.4834C31 31.8717 29.8659 33 28.4742 33ZM2.59261 28.2534C2.40861 28.2534 2.25807 28.1034 2.25807 27.92V25.1901C2.25807 25.0067 2.40861 24.8567 2.59261 24.8567C2.77661 24.8567 2.92715 25.0067 2.92715 25.1901V27.92C2.92715 28.105 2.77661 28.2534 2.59261 28.2534ZM2.59261 24.4317C2.40861 24.4317 2.25807 24.2817 2.25807 24.0984V21.3684C2.25807 21.1851 2.40861 21.0351 2.59261 21.0351C2.77661 21.0351 2.92715 21.1851 2.92715 21.3684V24.0984C2.92715 24.2817 2.77661 24.4317 2.59261 24.4317ZM2.59261 20.6101C2.40861 20.6101 2.25807 20.4601 2.25807 20.2768V17.5468C2.25807 17.3635 2.40861 17.2135 2.59261 17.2135C2.77661 17.2135 2.92715 17.3635 2.92715 17.5468V20.2768C2.92715 20.4601 2.77661 20.6101 2.59261 20.6101ZM2.59261 16.7885C2.40861 16.7885 2.25807 16.6385 2.25807 16.4552V13.7252C2.25807 13.5419 2.40861 13.3919 2.59261 13.3919C2.77661 13.3919 2.92715 13.5419 2.92715 13.7252V16.4552C2.92715 16.6385 2.77661 16.7885 2.59261 16.7885ZM2.59261 12.9669C2.40861 12.9669 2.25807 12.8169 2.25807 12.6335V9.90356C2.25807 9.72022 2.40861 9.57023 2.59261 9.57023C2.77661 9.57023 2.92715 9.72022 2.92715 9.90356V12.6335C2.92715 12.8169 2.77661 12.9669 2.59261 12.9669ZM2.59261 9.14523C2.40861 9.14523 2.25807 8.99523 2.25807 8.81189V6.08193C2.25807 5.8986 2.40861 5.7486 2.59261 5.7486C2.77661 5.7486 2.92715 5.8986 2.92715 6.08193V8.81189C2.92715 8.99523 2.77661 9.14523 2.59261 9.14523Z"/>
<path fill-rule="evenodd" clip-rule="evenodd" d="M7.73416 33C7.55016 33 7.39962 32.85 7.39962 32.6667V1.33333C7.39962 1.15 7.55016 1 7.73416 1C7.91816 1 8.0687 1.15 8.0687 1.33333V32.6667C8.0687 32.85 7.91816 33 7.73416 33Z"/>
<path fill-rule="evenodd" clip-rule="evenodd" d="M28.2216 33C28.0376 33 27.887 32.85 27.887 32.6667V1.33333C27.887 1.15 28.0376 1 28.2216 1C28.4056 1 28.5561 1.15 28.5561 1.33333V32.6667C28.5561 32.85 28.4056 33 28.2216 33ZM25.5235 33C25.3395 33 25.189 32.85 25.189 32.6667V1.33333C25.189 1.15 25.3395 1 25.5235 1C25.7075 1 25.858 1.15 25.858 1.33333V32.6667C25.858 32.85 25.7075 33 25.5235 33Z"/>
<path fill-rule="evenodd" clip-rule="evenodd" d="M16.6281 25.3567C16.5177 25.3567 16.414 25.3034 16.3522 25.2117C16.021 24.7301 15.5894 24.1451 15.1311 23.5268C13.1673 20.8651 10.476 17.222 10.476 14.7767C10.476 11.3968 13.2359 8.64686 16.6281 8.64686C20.0203 8.64686 22.7802 11.3968 22.7802 14.7767C22.7802 17.2217 20.0888 20.8665 18.1251 23.5268C17.6685 24.1467 17.2353 24.7318 16.904 25.2117C16.8438 25.3017 16.7401 25.3567 16.6297 25.3567H16.6281ZM16.6281 9.31205C13.6056 9.31205 11.1449 11.762 11.1449 14.7755C11.1449 17.0022 13.761 20.544 15.6694 23.1321C16.0123 23.5971 16.3418 24.0421 16.6262 24.4421C16.9105 24.0421 17.2401 23.5971 17.583 23.1321C19.4932 20.5455 22.1075 17.0022 22.1075 14.7755C22.1075 11.7638 19.6486 9.31205 16.6242 9.31205H16.6281Z"/>
<path fill-rule="evenodd" clip-rule="evenodd" d="M16.6281 18.0484C14.6995 18.0484 13.1322 16.4867 13.1322 14.5651C13.1322 12.6434 14.7012 11.0818 16.6281 11.0818C18.5568 11.0818 20.1241 12.6451 20.1241 14.5651C20.1241 16.4867 18.5551 18.0484 16.6281 18.0484ZM16.6281 11.7483C15.0692 11.7483 13.8013 13.0116 13.8013 14.565C13.8013 16.1183 15.0692 17.3816 16.6281 17.3816C18.1871 17.3816 19.455 16.1183 19.455 14.565C19.455 13.0116 18.1871 11.7483 16.6281 11.7483Z"/>
<path fill-rule="evenodd" clip-rule="evenodd" d="M1.88319 6.41372C1.39644 6.41372 1 6.02039 1 5.53373C1 5.04874 1.39476 4.65374 1.88319 4.65374H3.78004C4.26679 4.65374 4.66323 5.04707 4.66323 5.53373C4.66491 6.01872 4.26847 6.41372 3.78171 6.41372H1.88319ZM1.88319 5.3204C1.76777 5.3204 1.66908 5.41706 1.66908 5.53373C1.66908 5.64873 1.7661 5.74706 1.88319 5.74706H3.78004C3.89546 5.74706 3.99415 5.6504 3.99415 5.53373C3.99415 5.41873 3.89714 5.3204 3.78004 5.3204H1.88319Z"/>
<path fill-rule="evenodd" clip-rule="evenodd" d="M1.88319 10.2354C1.39644 10.2354 1 9.84202 1 9.35536C1 8.87037 1.39476 8.47536 1.88319 8.47536H3.78004C4.26679 8.47536 4.66323 8.8687 4.66323 9.35536C4.66323 9.84035 4.26847 10.2354 3.78171 10.2354H1.88319ZM1.88319 9.14369C1.76777 9.14369 1.66908 9.24035 1.66908 9.35702C1.66908 9.47202 1.7661 9.57035 1.88319 9.57035H3.78004C3.89546 9.57035 3.99415 9.47369 3.99415 9.35702C3.99415 9.24202 3.89714 9.14369 3.78004 9.14369H1.88319Z"/>
<path fill-rule="evenodd" clip-rule="evenodd" d="M1.88319 14.057C1.39644 14.057 1 13.6637 1 13.177C1 12.692 1.39476 12.297 1.88319 12.297H3.78004C4.26679 12.297 4.66323 12.6903 4.66323 13.177C4.66491 13.662 4.26847 14.057 3.78171 14.057H1.88319ZM1.88319 12.9653C1.76777 12.9653 1.66908 13.062 1.66908 13.1786C1.66908 13.2936 1.7661 13.392 1.88319 13.392H3.78004C3.89546 13.392 3.99415 13.2953 3.99415 13.1786C3.99415 13.0637 3.89714 12.9653 3.78004 12.9653H1.88319Z"/>
<path fill-rule="evenodd" clip-rule="evenodd" d="M1.88319 17.8799C1.39644 17.8799 1 17.4866 1 16.9999C1 16.5149 1.39476 16.1199 1.88319 16.1199H3.78004C4.26679 16.1199 4.66323 16.5132 4.66323 16.9999C4.66491 17.4849 4.26847 17.8799 3.78171 17.8799H1.88319ZM1.88319 16.7882C1.76777 16.7882 1.66908 16.8849 1.66908 17.0016C1.66908 17.1166 1.7661 17.2149 1.88319 17.2149H3.78004C3.89546 17.2149 3.99415 17.1182 3.99415 17.0016C3.99415 16.8866 3.89714 16.7882 3.78004 16.7882H1.88319Z"/>
<path fill-rule="evenodd" clip-rule="evenodd" d="M1.88319 21.7019C1.39644 21.7019 1 21.3086 1 20.8219C1 20.337 1.39476 19.942 1.88319 19.942H3.78004C4.26679 19.942 4.66323 20.3353 4.66323 20.8219C4.66323 21.3069 4.26847 21.7019 3.78171 21.7019H1.88319ZM1.88319 20.6103C1.76777 20.6103 1.66908 20.7069 1.66908 20.8236C1.66908 20.9386 1.7661 21.0369 1.88319 21.0369H3.78004C3.89546 21.0369 3.99415 20.9403 3.99415 20.8236C3.99415 20.7086 3.89714 20.6103 3.78004 20.6103H1.88319Z"/>
<path fill-rule="evenodd" clip-rule="evenodd" d="M1.88319 25.5236C1.39644 25.5236 1 25.1302 1 24.6436C1 24.1586 1.39476 23.7636 1.88319 23.7636H3.78004C4.26679 23.7636 4.66323 24.1569 4.66323 24.6436C4.66323 25.1286 4.26847 25.5236 3.78171 25.5236H1.88319ZM1.88319 24.4319C1.76777 24.4319 1.66908 24.5286 1.66908 24.6452C1.66908 24.7602 1.7661 24.8586 1.88319 24.8586H3.78004C3.89546 24.8586 3.99415 24.7619 3.99415 24.6452C3.99415 24.5302 3.89714 24.4319 3.78004 24.4319H1.88319Z"/>
<path fill-rule="evenodd" clip-rule="evenodd" d="M1.88319 29.3452C1.39644 29.3452 1 28.9519 1 28.4652C1 27.9802 1.39476 27.5852 1.88319 27.5852H3.78004C4.26679 27.5852 4.66323 27.9785 4.66323 28.4652C4.66323 28.9502 4.26847 29.3452 3.78171 29.3452H1.88319ZM1.88319 28.2535C1.76777 28.2535 1.66908 28.3502 1.66908 28.4669C1.66908 28.5819 1.7661 28.6802 1.88319 28.6802H3.78004C3.89546 28.6802 3.99415 28.5835 3.99415 28.4669C3.99415 28.3519 3.89714 28.2535 3.78004 28.2535H1.88319Z"/>
</mask>
<path fill-rule="evenodd" clip-rule="evenodd" d="M28.4742 33H4.78378C3.39041 33 2.258 31.87 2.258 30.4834V29.0134C2.258 28.83 2.40855 28.68 2.59255 28.68C2.77654 28.68 2.92709 28.83 2.92709 29.0134V30.4834C2.92709 31.505 3.76009 32.3333 4.78378 32.3333H28.4742C29.4996 32.3333 30.3309 31.5033 30.3309 30.4834V3.51864C30.3309 2.49699 29.4979 1.66867 28.4742 1.66867H4.78378C3.75842 1.66867 2.92709 2.49866 2.92709 3.51864V4.98862C2.92709 5.17196 2.77654 5.32196 2.59255 5.32196C2.40855 5.32196 2.258 5.17196 2.258 4.98862V3.51864C2.258 2.13032 3.39208 1.00201 4.78378 1.00201H28.4742C29.8676 1.00201 31 2.13198 31 3.51864V30.4834C31 31.8717 29.8659 33 28.4742 33ZM2.59261 28.2534C2.40861 28.2534 2.25807 28.1034 2.25807 27.92V25.1901C2.25807 25.0067 2.40861 24.8567 2.59261 24.8567C2.77661 24.8567 2.92715 25.0067 2.92715 25.1901V27.92C2.92715 28.105 2.77661 28.2534 2.59261 28.2534ZM2.59261 24.4317C2.40861 24.4317 2.25807 24.2817 2.25807 24.0984V21.3684C2.25807 21.1851 2.40861 21.0351 2.59261 21.0351C2.77661 21.0351 2.92715 21.1851 2.92715 21.3684V24.0984C2.92715 24.2817 2.77661 24.4317 2.59261 24.4317ZM2.59261 20.6101C2.40861 20.6101 2.25807 20.4601 2.25807 20.2768V17.5468C2.25807 17.3635 2.40861 17.2135 2.59261 17.2135C2.77661 17.2135 2.92715 17.3635 2.92715 17.5468V20.2768C2.92715 20.4601 2.77661 20.6101 2.59261 20.6101ZM2.59261 16.7885C2.40861 16.7885 2.25807 16.6385 2.25807 16.4552V13.7252C2.25807 13.5419 2.40861 13.3919 2.59261 13.3919C2.77661 13.3919 2.92715 13.5419 2.92715 13.7252V16.4552C2.92715 16.6385 2.77661 16.7885 2.59261 16.7885ZM2.59261 12.9669C2.40861 12.9669 2.25807 12.8169 2.25807 12.6335V9.90356C2.25807 9.72022 2.40861 9.57023 2.59261 9.57023C2.77661 9.57023 2.92715 9.72022 2.92715 9.90356V12.6335C2.92715 12.8169 2.77661 12.9669 2.59261 12.9669ZM2.59261 9.14523C2.40861 9.14523 2.25807 8.99523 2.25807 8.81189V6.08193C2.25807 5.8986 2.40861 5.7486 2.59261 5.7486C2.77661 5.7486 2.92715 5.8986 2.92715 6.08193V8.81189C2.92715 8.99523 2.77661 9.14523 2.59261 9.14523Z" fill="black"/>
<path fill-rule="evenodd" clip-rule="evenodd" d="M7.73416 33C7.55016 33 7.39962 32.85 7.39962 32.6667V1.33333C7.39962 1.15 7.55016 1 7.73416 1C7.91816 1 8.0687 1.15 8.0687 1.33333V32.6667C8.0687 32.85 7.91816 33 7.73416 33Z" fill="black"/>
<path fill-rule="evenodd" clip-rule="evenodd" d="M28.2216 33C28.0376 33 27.887 32.85 27.887 32.6667V1.33333C27.887 1.15 28.0376 1 28.2216 1C28.4056 1 28.5561 1.15 28.5561 1.33333V32.6667C28.5561 32.85 28.4056 33 28.2216 33ZM25.5235 33C25.3395 33 25.189 32.85 25.189 32.6667V1.33333C25.189 1.15 25.3395 1 25.5235 1C25.7075 1 25.858 1.15 25.858 1.33333V32.6667C25.858 32.85 25.7075 33 25.5235 33Z" fill="black"/>
<path fill-rule="evenodd" clip-rule="evenodd" d="M16.6281 25.3567C16.5177 25.3567 16.414 25.3034 16.3522 25.2117C16.021 24.7301 15.5894 24.1451 15.1311 23.5268C13.1673 20.8651 10.476 17.222 10.476 14.7767C10.476 11.3968 13.2359 8.64686 16.6281 8.64686C20.0203 8.64686 22.7802 11.3968 22.7802 14.7767C22.7802 17.2217 20.0888 20.8665 18.1251 23.5268C17.6685 24.1467 17.2353 24.7318 16.904 25.2117C16.8438 25.3017 16.7401 25.3567 16.6297 25.3567H16.6281ZM16.6281 9.31205C13.6056 9.31205 11.1449 11.762 11.1449 14.7755C11.1449 17.0022 13.761 20.544 15.6694 23.1321C16.0123 23.5971 16.3418 24.0421 16.6262 24.4421C16.9105 24.0421 17.2401 23.5971 17.583 23.1321C19.4932 20.5455 22.1075 17.0022 22.1075 14.7755C22.1075 11.7638 19.6486 9.31205 16.6242 9.31205H16.6281Z" fill="black"/>
<path fill-rule="evenodd" clip-rule="evenodd" d="M16.6281 18.0484C14.6995 18.0484 13.1322 16.4867 13.1322 14.5651C13.1322 12.6434 14.7012 11.0818 16.6281 11.0818C18.5568 11.0818 20.1241 12.6451 20.1241 14.5651C20.1241 16.4867 18.5551 18.0484 16.6281 18.0484ZM16.6281 11.7483C15.0692 11.7483 13.8013 13.0116 13.8013 14.565C13.8013 16.1183 15.0692 17.3816 16.6281 17.3816C18.1871 17.3816 19.455 16.1183 19.455 14.565C19.455 13.0116 18.1871 11.7483 16.6281 11.7483Z" fill="black"/>
<path fill-rule="evenodd" clip-rule="evenodd" d="M1.88319 6.41372C1.39644 6.41372 1 6.02039 1 5.53373C1 5.04874 1.39476 4.65374 1.88319 4.65374H3.78004C4.26679 4.65374 4.66323 5.04707 4.66323 5.53373C4.66491 6.01872 4.26847 6.41372 3.78171 6.41372H1.88319ZM1.88319 5.3204C1.76777 5.3204 1.66908 5.41706 1.66908 5.53373C1.66908 5.64873 1.7661 5.74706 1.88319 5.74706H3.78004C3.89546 5.74706 3.99415 5.6504 3.99415 5.53373C3.99415 5.41873 3.89714 5.3204 3.78004 5.3204H1.88319Z" fill="black"/>
<path fill-rule="evenodd" clip-rule="evenodd" d="M1.88319 10.2354C1.39644 10.2354 1 9.84202 1 9.35536C1 8.87037 1.39476 8.47536 1.88319 8.47536H3.78004C4.26679 8.47536 4.66323 8.8687 4.66323 9.35536C4.66323 9.84035 4.26847 10.2354 3.78171 10.2354H1.88319ZM1.88319 9.14369C1.76777 9.14369 1.66908 9.24035 1.66908 9.35702C1.66908 9.47202 1.7661 9.57035 1.88319 9.57035H3.78004C3.89546 9.57035 3.99415 9.47369 3.99415 9.35702C3.99415 9.24202 3.89714 9.14369 3.78004 9.14369H1.88319Z" fill="black"/>
<path fill-rule="evenodd" clip-rule="evenodd" d="M1.88319 14.057C1.39644 14.057 1 13.6637 1 13.177C1 12.692 1.39476 12.297 1.88319 12.297H3.78004C4.26679 12.297 4.66323 12.6903 4.66323 13.177C4.66491 13.662 4.26847 14.057 3.78171 14.057H1.88319ZM1.88319 12.9653C1.76777 12.9653 1.66908 13.062 1.66908 13.1786C1.66908 13.2936 1.7661 13.392 1.88319 13.392H3.78004C3.89546 13.392 3.99415 13.2953 3.99415 13.1786C3.99415 13.0637 3.89714 12.9653 3.78004 12.9653H1.88319Z" fill="black"/>
<path fill-rule="evenodd" clip-rule="evenodd" d="M1.88319 17.8799C1.39644 17.8799 1 17.4866 1 16.9999C1 16.5149 1.39476 16.1199 1.88319 16.1199H3.78004C4.26679 16.1199 4.66323 16.5132 4.66323 16.9999C4.66491 17.4849 4.26847 17.8799 3.78171 17.8799H1.88319ZM1.88319 16.7882C1.76777 16.7882 1.66908 16.8849 1.66908 17.0016C1.66908 17.1166 1.7661 17.2149 1.88319 17.2149H3.78004C3.89546 17.2149 3.99415 17.1182 3.99415 17.0016C3.99415 16.8866 3.89714 16.7882 3.78004 16.7882H1.88319Z" fill="black"/>
<path fill-rule="evenodd" clip-rule="evenodd" d="M1.88319 21.7019C1.39644 21.7019 1 21.3086 1 20.8219C1 20.337 1.39476 19.942 1.88319 19.942H3.78004C4.26679 19.942 4.66323 20.3353 4.66323 20.8219C4.66323 21.3069 4.26847 21.7019 3.78171 21.7019H1.88319ZM1.88319 20.6103C1.76777 20.6103 1.66908 20.7069 1.66908 20.8236C1.66908 20.9386 1.7661 21.0369 1.88319 21.0369H3.78004C3.89546 21.0369 3.99415 20.9403 3.99415 20.8236C3.99415 20.7086 3.89714 20.6103 3.78004 20.6103H1.88319Z" fill="black"/>
<path fill-rule="evenodd" clip-rule="evenodd" d="M1.88319 25.5236C1.39644 25.5236 1 25.1302 1 24.6436C1 24.1586 1.39476 23.7636 1.88319 23.7636H3.78004C4.26679 23.7636 4.66323 24.1569 4.66323 24.6436C4.66323 25.1286 4.26847 25.5236 3.78171 25.5236H1.88319ZM1.88319 24.4319C1.76777 24.4319 1.66908 24.5286 1.66908 24.6452C1.66908 24.7602 1.7661 24.8586 1.88319 24.8586H3.78004C3.89546 24.8586 3.99415 24.7619 3.99415 24.6452C3.99415 24.5302 3.89714 24.4319 3.78004 24.4319H1.88319Z" fill="black"/>
<path fill-rule="evenodd" clip-rule="evenodd" d="M1.88319 29.3452C1.39644 29.3452 1 28.9519 1 28.4652C1 27.9802 1.39476 27.5852 1.88319 27.5852H3.78004C4.26679 27.5852 4.66323 27.9785 4.66323 28.4652C4.66323 28.9502 4.26847 29.3452 3.78171 29.3452H1.88319ZM1.88319 28.2535C1.76777 28.2535 1.66908 28.3502 1.66908 28.4669C1.66908 28.5819 1.7661 28.6802 1.88319 28.6802H3.78004C3.89546 28.6802 3.99415 28.5835 3.99415 28.4669C3.99415 28.3519 3.89714 28.2535 3.78004 28.2535H1.88319Z" fill="black"/>
<path fill-rule="evenodd" clip-rule="evenodd" d="M28.4742 33H4.78378C3.39041 33 2.258 31.87 2.258 30.4834V29.0134C2.258 28.83 2.40855 28.68 2.59255 28.68C2.77654 28.68 2.92709 28.83 2.92709 29.0134V30.4834C2.92709 31.505 3.76009 32.3333 4.78378 32.3333H28.4742C29.4996 32.3333 30.3309 31.5033 30.3309 30.4834V3.51864C30.3309 2.49699 29.4979 1.66867 28.4742 1.66867H4.78378C3.75842 1.66867 2.92709 2.49866 2.92709 3.51864V4.98862C2.92709 5.17196 2.77654 5.32196 2.59255 5.32196C2.40855 5.32196 2.258 5.17196 2.258 4.98862V3.51864C2.258 2.13032 3.39208 1.00201 4.78378 1.00201H28.4742C29.8676 1.00201 31 2.13198 31 3.51864V30.4834C31 31.8717 29.8659 33 28.4742 33ZM2.59261 28.2534C2.40861 28.2534 2.25807 28.1034 2.25807 27.92V25.1901C2.25807 25.0067 2.40861 24.8567 2.59261 24.8567C2.77661 24.8567 2.92715 25.0067 2.92715 25.1901V27.92C2.92715 28.105 2.77661 28.2534 2.59261 28.2534ZM2.59261 24.4317C2.40861 24.4317 2.25807 24.2817 2.25807 24.0984V21.3684C2.25807 21.1851 2.40861 21.0351 2.59261 21.0351C2.77661 21.0351 2.92715 21.1851 2.92715 21.3684V24.0984C2.92715 24.2817 2.77661 24.4317 2.59261 24.4317ZM2.59261 20.6101C2.40861 20.6101 2.25807 20.4601 2.25807 20.2768V17.5468C2.25807 17.3635 2.40861 17.2135 2.59261 17.2135C2.77661 17.2135 2.92715 17.3635 2.92715 17.5468V20.2768C2.92715 20.4601 2.77661 20.6101 2.59261 20.6101ZM2.59261 16.7885C2.40861 16.7885 2.25807 16.6385 2.25807 16.4552V13.7252C2.25807 13.5419 2.40861 13.3919 2.59261 13.3919C2.77661 13.3919 2.92715 13.5419 2.92715 13.7252V16.4552C2.92715 16.6385 2.77661 16.7885 2.59261 16.7885ZM2.59261 12.9669C2.40861 12.9669 2.25807 12.8169 2.25807 12.6335V9.90356C2.25807 9.72022 2.40861 9.57023 2.59261 9.57023C2.77661 9.57023 2.92715 9.72022 2.92715 9.90356V12.6335C2.92715 12.8169 2.77661 12.9669 2.59261 12.9669ZM2.59261 9.14523C2.40861 9.14523 2.25807 8.99523 2.25807 8.81189V6.08193C2.25807 5.8986 2.40861 5.7486 2.59261 5.7486C2.77661 5.7486 2.92715 5.8986 2.92715 6.08193V8.81189C2.92715 8.99523 2.77661 9.14523 2.59261 9.14523Z" stroke="black" stroke-width="0.4" mask="url(#path-1-outside-1_306_5151)"/>
<path fill-rule="evenodd" clip-rule="evenodd" d="M7.73416 33C7.55016 33 7.39962 32.85 7.39962 32.6667V1.33333C7.39962 1.15 7.55016 1 7.73416 1C7.91816 1 8.0687 1.15 8.0687 1.33333V32.6667C8.0687 32.85 7.91816 33 7.73416 33Z" stroke="black" stroke-width="0.4" mask="url(#path-1-outside-1_306_5151)"/>
<path fill-rule="evenodd" clip-rule="evenodd" d="M28.2216 33C28.0376 33 27.887 32.85 27.887 32.6667V1.33333C27.887 1.15 28.0376 1 28.2216 1C28.4056 1 28.5561 1.15 28.5561 1.33333V32.6667C28.5561 32.85 28.4056 33 28.2216 33ZM25.5235 33C25.3395 33 25.189 32.85 25.189 32.6667V1.33333C25.189 1.15 25.3395 1 25.5235 1C25.7075 1 25.858 1.15 25.858 1.33333V32.6667C25.858 32.85 25.7075 33 25.5235 33Z" stroke="black" stroke-width="0.4" mask="url(#path-1-outside-1_306_5151)"/>
<path fill-rule="evenodd" clip-rule="evenodd" d="M16.6281 25.3567C16.5177 25.3567 16.414 25.3034 16.3522 25.2117C16.021 24.7301 15.5894 24.1451 15.1311 23.5268C13.1673 20.8651 10.476 17.222 10.476 14.7767C10.476 11.3968 13.2359 8.64686 16.6281 8.64686C20.0203 8.64686 22.7802 11.3968 22.7802 14.7767C22.7802 17.2217 20.0888 20.8665 18.1251 23.5268C17.6685 24.1467 17.2353 24.7318 16.904 25.2117C16.8438 25.3017 16.7401 25.3567 16.6297 25.3567H16.6281ZM16.6281 9.31205C13.6056 9.31205 11.1449 11.762 11.1449 14.7755C11.1449 17.0022 13.761 20.544 15.6694 23.1321C16.0123 23.5971 16.3418 24.0421 16.6262 24.4421C16.9105 24.0421 17.2401 23.5971 17.583 23.1321C19.4932 20.5455 22.1075 17.0022 22.1075 14.7755C22.1075 11.7638 19.6486 9.31205 16.6242 9.31205H16.6281Z" stroke="black" stroke-width="0.4" mask="url(#path-1-outside-1_306_5151)"/>
<path fill-rule="evenodd" clip-rule="evenodd" d="M16.6281 18.0484C14.6995 18.0484 13.1322 16.4867 13.1322 14.5651C13.1322 12.6434 14.7012 11.0818 16.6281 11.0818C18.5568 11.0818 20.1241 12.6451 20.1241 14.5651C20.1241 16.4867 18.5551 18.0484 16.6281 18.0484ZM16.6281 11.7483C15.0692 11.7483 13.8013 13.0116 13.8013 14.565C13.8013 16.1183 15.0692 17.3816 16.6281 17.3816C18.1871 17.3816 19.455 16.1183 19.455 14.565C19.455 13.0116 18.1871 11.7483 16.6281 11.7483Z" stroke="black" stroke-width="0.4" mask="url(#path-1-outside-1_306_5151)"/>
<path fill-rule="evenodd" clip-rule="evenodd" d="M1.88319 6.41372C1.39644 6.41372 1 6.02039 1 5.53373C1 5.04874 1.39476 4.65374 1.88319 4.65374H3.78004C4.26679 4.65374 4.66323 5.04707 4.66323 5.53373C4.66491 6.01872 4.26847 6.41372 3.78171 6.41372H1.88319ZM1.88319 5.3204C1.76777 5.3204 1.66908 5.41706 1.66908 5.53373C1.66908 5.64873 1.7661 5.74706 1.88319 5.74706H3.78004C3.89546 5.74706 3.99415 5.6504 3.99415 5.53373C3.99415 5.41873 3.89714 5.3204 3.78004 5.3204H1.88319Z" stroke="black" stroke-width="0.4" mask="url(#path-1-outside-1_306_5151)"/>
<path fill-rule="evenodd" clip-rule="evenodd" d="M1.88319 10.2354C1.39644 10.2354 1 9.84202 1 9.35536C1 8.87037 1.39476 8.47536 1.88319 8.47536H3.78004C4.26679 8.47536 4.66323 8.8687 4.66323 9.35536C4.66323 9.84035 4.26847 10.2354 3.78171 10.2354H1.88319ZM1.88319 9.14369C1.76777 9.14369 1.66908 9.24035 1.66908 9.35702C1.66908 9.47202 1.7661 9.57035 1.88319 9.57035H3.78004C3.89546 9.57035 3.99415 9.47369 3.99415 9.35702C3.99415 9.24202 3.89714 9.14369 3.78004 9.14369H1.88319Z" stroke="black" stroke-width="0.4" mask="url(#path-1-outside-1_306_5151)"/>
<path fill-rule="evenodd" clip-rule="evenodd" d="M1.88319 14.057C1.39644 14.057 1 13.6637 1 13.177C1 12.692 1.39476 12.297 1.88319 12.297H3.78004C4.26679 12.297 4.66323 12.6903 4.66323 13.177C4.66491 13.662 4.26847 14.057 3.78171 14.057H1.88319ZM1.88319 12.9653C1.76777 12.9653 1.66908 13.062 1.66908 13.1786C1.66908 13.2936 1.7661 13.392 1.88319 13.392H3.78004C3.89546 13.392 3.99415 13.2953 3.99415 13.1786C3.99415 13.0637 3.89714 12.9653 3.78004 12.9653H1.88319Z" stroke="black" stroke-width="0.4" mask="url(#path-1-outside-1_306_5151)"/>
<path fill-rule="evenodd" clip-rule="evenodd" d="M1.88319 17.8799C1.39644 17.8799 1 17.4866 1 16.9999C1 16.5149 1.39476 16.1199 1.88319 16.1199H3.78004C4.26679 16.1199 4.66323 16.5132 4.66323 16.9999C4.66491 17.4849 4.26847 17.8799 3.78171 17.8799H1.88319ZM1.88319 16.7882C1.76777 16.7882 1.66908 16.8849 1.66908 17.0016C1.66908 17.1166 1.7661 17.2149 1.88319 17.2149H3.78004C3.89546 17.2149 3.99415 17.1182 3.99415 17.0016C3.99415 16.8866 3.89714 16.7882 3.78004 16.7882H1.88319Z" stroke="black" stroke-width="0.4" mask="url(#path-1-outside-1_306_5151)"/>
<path fill-rule="evenodd" clip-rule="evenodd" d="M1.88319 21.7019C1.39644 21.7019 1 21.3086 1 20.8219C1 20.337 1.39476 19.942 1.88319 19.942H3.78004C4.26679 19.942 4.66323 20.3353 4.66323 20.8219C4.66323 21.3069 4.26847 21.7019 3.78171 21.7019H1.88319ZM1.88319 20.6103C1.76777 20.6103 1.66908 20.7069 1.66908 20.8236C1.66908 20.9386 1.7661 21.0369 1.88319 21.0369H3.78004C3.89546 21.0369 3.99415 20.9403 3.99415 20.8236C3.99415 20.7086 3.89714 20.6103 3.78004 20.6103H1.88319Z" stroke="black" stroke-width="0.4" mask="url(#path-1-outside-1_306_5151)"/>
<path fill-rule="evenodd" clip-rule="evenodd" d="M1.88319 25.5236C1.39644 25.5236 1 25.1302 1 24.6436C1 24.1586 1.39476 23.7636 1.88319 23.7636H3.78004C4.26679 23.7636 4.66323 24.1569 4.66323 24.6436C4.66323 25.1286 4.26847 25.5236 3.78171 25.5236H1.88319ZM1.88319 24.4319C1.76777 24.4319 1.66908 24.5286 1.66908 24.6452C1.66908 24.7602 1.7661 24.8586 1.88319 24.8586H3.78004C3.89546 24.8586 3.99415 24.7619 3.99415 24.6452C3.99415 24.5302 3.89714 24.4319 3.78004 24.4319H1.88319Z" stroke="black" stroke-width="0.4" mask="url(#path-1-outside-1_306_5151)"/>
<path fill-rule="evenodd" clip-rule="evenodd" d="M1.88319 29.3452C1.39644 29.3452 1 28.9519 1 28.4652C1 27.9802 1.39476 27.5852 1.88319 27.5852H3.78004C4.26679 27.5852 4.66323 27.9785 4.66323 28.4652C4.66323 28.9502 4.26847 29.3452 3.78171 29.3452H1.88319ZM1.88319 28.2535C1.76777 28.2535 1.66908 28.3502 1.66908 28.4669C1.66908 28.5819 1.7661 28.6802 1.88319 28.6802H3.78004C3.89546 28.6802 3.99415 28.5835 3.99415 28.4669C3.99415 28.3519 3.89714 28.2535 3.78004 28.2535H1.88319Z" stroke="black" stroke-width="0.4" mask="url(#path-1-outside-1_306_5151)"/>
</svg>
