<svg width="105" height="53" viewBox="0 0 105 53" fill="none" xmlns="http://www.w3.org/2000/svg">
<path d="M20.7088 11.3767C17.0982 13.1447 11.6369 17.2938 10.546 19.2167C10.6758 19.12 10.8122 19.0296 10.9356 18.9328C12.6435 17.6294 14.4553 16.4485 16.6177 16.184C20.3127 15.7258 23.7025 16.4292 26.313 19.3523C26.5858 19.662 26.7806 20.0362 27.0144 20.3782C26.9689 20.4234 26.9299 20.475 26.8845 20.5202C26.7546 20.5008 26.6117 20.5008 26.4949 20.4557C26.3455 20.3976 26.1832 20.3202 26.0728 20.2105C23.6116 17.8359 20.1633 18.5134 17.897 19.9524C15.6631 21.372 13.9487 23.3078 12.3318 25.3468C9.95501 28.3473 8.43545 31.7802 7.08473 35.3098C5.96779 38.2329 5.14307 41.2205 4.85084 44.3501C4.66252 46.402 5.06514 48.2991 6.09766 50.0672C6.74055 51.1706 7.69515 51.5384 8.94197 51.2222C10.455 50.8415 11.7019 49.9381 13.0006 49.138C13.2864 48.9638 13.3188 48.7508 13.1045 48.4605C12.6305 47.8216 12.1759 47.1635 11.7343 46.4988C11.0525 45.4857 10.6888 44.3501 10.494 43.1628C10.4421 42.8466 10.5135 42.4788 10.6304 42.1691C10.6888 42.0142 10.9616 41.8851 11.1499 41.8593C11.2473 41.8464 11.4421 42.0658 11.4941 42.2142C12.0655 43.9435 13.3188 45.1502 14.6306 46.3117C15.2995 46.8989 15.4423 46.8989 16.0073 46.2407C17.7217 44.2404 19.2152 42.0723 20.527 39.788C22.4297 36.4713 23.9817 33.0062 24.6896 29.2249C24.9948 27.6053 24.9493 25.9792 24.6246 24.366C24.4363 23.4304 23.9428 22.7077 23.0596 22.2624C22.7024 22.0818 22.3518 21.8753 22.0531 21.6236C21.9102 21.501 21.8972 21.23 21.8258 21.0235C22.0271 20.9783 22.2479 20.8493 22.4232 20.9009C24.4558 21.5075 26.0728 22.6109 26.8455 24.6757C27.6118 26.7213 27.5339 28.8184 27.0014 30.8768C25.3909 37.1295 22.6115 42.7885 18.1567 47.5571C18.0334 47.6926 17.91 47.8216 17.7931 47.9636C17.7476 48.0152 17.7282 48.0926 17.7022 48.1507C17.7217 48.1959 17.7346 48.2411 17.7541 48.254C19.7997 49.3251 21.8647 50.3575 24.1506 50.8609C25.0857 51.0673 26.0273 51.119 26.9624 50.8802C27.0663 50.8544 27.1767 50.835 27.2871 50.835C27.6832 50.8157 27.7936 50.9706 27.5858 51.319C27.2157 51.9385 26.6507 52.3256 25.9818 52.5644C24.5922 53.0548 23.1765 53.1 21.7349 52.8547C19.5919 52.4869 17.5788 51.7771 15.754 50.5898C15.3904 50.3511 15.1046 50.3446 14.715 50.5834C13.1435 51.5513 11.52 52.4418 9.63681 52.5966C6.6886 52.8418 4.13652 52.0223 2.22083 49.6413C0.753222 47.8152 0.181763 45.7051 0.0388977 43.4209C-0.246832 38.8846 1.0909 34.6516 2.43513 30.4251C3.16244 28.1409 4.09106 25.9276 5.35087 23.895C6.57821 21.914 7.87048 19.9524 9.57837 18.3263C9.92254 17.9972 10.3706 17.7713 10.7862 17.5068C11.1694 17.268 11.5655 17.0486 11.9551 16.8163C12.111 16.6873 12.2733 16.5582 12.4292 16.4292C12.4681 16.3905 12.5071 16.3517 12.5461 16.313C13.2149 15.7129 13.9098 15.1386 14.5462 14.5127C15.0397 14.0223 15.4618 13.4609 15.9164 12.9318C16.4294 12.5769 16.9099 12.151 17.4684 11.8865C17.8645 11.6929 18.3775 11.751 18.8191 11.6348C19.3841 11.4799 19.9296 11.2605 20.488 11.0734C20.566 11.1831 20.6374 11.2799 20.7088 11.3767Z" fill="white"/>
<path d="M49.1714 34.6065C49.4766 34.2903 49.8273 33.9999 50.0805 33.6515C51.4377 31.7737 52.7755 29.8766 54.1197 27.986C54.1717 27.915 54.2041 27.7924 54.2756 27.7666C54.4639 27.7085 54.6782 27.644 54.8535 27.6892C54.9249 27.7085 55.0029 28.0505 54.9379 28.1731C54.5548 28.9345 54.1652 29.6895 53.7171 30.4122C52.8404 31.8253 51.9248 33.2191 51.0092 34.6129C50.8728 34.8259 50.6845 35.0065 50.5156 35.1872C49.2428 36.5681 47.8661 36.3616 46.5024 35.2775C46.1777 35.0259 45.9959 34.4064 46.0089 33.9612C46.0478 32.5932 46.0738 31.1994 46.3596 29.8766C47.2102 25.9405 48.7428 22.2495 50.7884 18.778C51.2559 17.9907 51.8469 17.2616 52.4703 16.584C53.3924 15.5774 54.3665 15.6936 55.6263 16.4292C55.8471 16.5582 56.0484 16.9906 56.0159 17.2487C55.9055 18.1004 55.8081 18.9844 55.4899 19.7717C54.4574 22.3334 53.0677 24.708 51.2819 26.8439C50.8403 27.373 50.4507 28.0118 50.2624 28.67C49.7688 30.4058 49.3922 32.1738 48.9766 33.9354C48.9376 34.1161 48.9701 34.3096 48.9701 34.4968C49.0415 34.5355 49.1064 34.5742 49.1714 34.6065ZM52.0027 23.8498C52.2495 23.4175 52.5222 23.0045 52.7365 22.5592C53.4443 21.0751 54.1392 19.5845 54.8145 18.0875C54.912 17.8681 54.9055 17.5971 54.9509 17.3519C54.8925 17.339 54.8275 17.3196 54.7691 17.3067C53.5677 19.3652 52.6261 21.5268 52.0027 23.8498Z" fill="white"/>
<path d="M74.4779 34.0193C74.7767 33.6644 75.1013 33.3224 75.3741 32.9481C76.4261 31.4963 77.4651 30.0315 78.5106 28.5667C78.7314 28.257 78.9522 27.9473 79.173 27.6375C79.3418 27.3988 79.5756 27.2568 79.8029 27.4956C79.8938 27.5924 79.8808 27.8956 79.7964 28.0376C78.6145 29.9734 77.4261 31.9028 76.2053 33.8128C75.9196 34.2645 75.5105 34.6452 75.1338 35.0388C74.4974 35.697 73.8026 36.0906 72.848 35.626C71.8869 35.155 71.1466 34.5613 71.2245 33.3675C71.231 33.2256 71.2115 33.0836 71.1076 32.89C70.9713 33.1094 70.8479 33.3288 70.705 33.5353C70.4063 33.9677 70.14 34.4258 69.7959 34.8194C69.101 35.5937 68.1854 35.7228 67.2373 35.4582C66.3476 35.213 66.0554 34.4452 65.8931 33.6321C65.6788 32.5545 65.8476 31.4898 66.1528 30.4703C66.6334 28.8765 67.2178 27.3214 67.7698 25.7533C67.8542 25.5146 67.9971 25.3017 68.1269 25.0823C68.8023 23.953 70.3608 23.8562 71.1596 24.9274C71.3089 25.1274 71.3154 25.521 71.2375 25.7792C70.8609 26.9665 70.3998 28.1344 70.0296 29.3217C69.5751 30.7736 69.1854 32.2383 68.7698 33.7031C68.7309 33.8386 68.7374 33.9806 68.7244 34.1225C68.7893 34.1806 68.8543 34.2322 68.9192 34.2903C69.0361 34.0967 69.14 33.8838 69.2829 33.7031C70.5881 32.0318 71.6012 30.2057 72.3155 28.2054C72.7116 27.102 73.2116 26.0308 73.7376 24.9855C74.0818 24.3015 74.7507 24.2111 75.6988 24.5983C76.4845 24.9145 76.7508 25.3404 76.5235 26.1147C76.1858 27.2439 75.7507 28.3344 75.413 29.4637C75.0169 30.7994 74.6792 32.148 74.3286 33.4966C74.2896 33.6386 74.3221 33.8063 74.3221 33.9612C74.374 33.9741 74.426 33.9999 74.4779 34.0193Z" fill="white"/>
<path d="M39.7748 34.1161C39.9112 33.9096 40.0345 33.6966 40.1839 33.4902C41.4567 31.7221 42.7295 29.9605 44.0023 28.1925C44.1322 28.0182 44.2555 27.8376 44.3854 27.6633C44.5478 27.4375 44.7231 27.2762 45.0218 27.4569C45.3465 27.6569 45.1322 27.8698 45.0218 28.057C44.1971 29.4185 43.3919 30.7994 42.5152 32.1286C41.8593 33.1223 41.1904 34.1354 40.3787 34.9936C39.2163 36.2196 37.5669 35.968 36.7227 34.4774C36.4759 34.0386 36.4824 33.4579 36.359 32.89C36.0408 33.3869 35.7356 33.8902 35.4109 34.3742C34.9369 35.0711 34.3005 35.4969 33.4303 35.5615C32.3393 35.6389 31.5211 35.1937 31.2938 34.1354C31.1185 33.3095 31.073 32.4061 31.1899 31.5672C31.4691 29.5282 32.1835 27.6053 33.0212 25.734C33.1186 25.521 33.2355 25.3146 33.3524 25.1081C33.9173 24.1531 34.4303 23.9595 35.4888 24.3015C36.4694 24.6177 36.7227 25.0887 36.411 26.0566C35.6902 28.257 34.9499 30.4509 34.242 32.6577C34.0927 33.1288 34.0342 33.6257 33.9368 34.1161C34.0018 34.1612 34.0732 34.2064 34.1381 34.2516C34.2745 34.0644 34.3979 33.8709 34.5407 33.6902C35.859 32.006 36.872 30.1605 37.5864 28.1409C37.963 27.0697 38.4565 26.0373 38.9695 25.0177C39.3332 24.3015 39.9956 24.2047 40.9697 24.6048C41.7554 24.9274 42.0022 25.3339 41.7684 26.1341C41.4827 27.1213 41.0995 28.0828 40.8008 29.07C40.3787 30.4896 39.9956 31.9221 39.6059 33.3482C39.554 33.5353 39.567 33.7354 39.5475 33.9289C39.6124 33.9935 39.6969 34.0515 39.7748 34.1161Z" fill="white"/>
<path d="M55.4315 21.301C56.5874 21.2623 57.6329 21.1848 58.6784 21.1977C59.2563 21.2042 59.5356 21.0235 59.7564 20.4815C60.2369 19.2684 60.7889 18.0875 61.3474 16.9067C61.7695 16.0162 62.1526 15.8936 63.0488 16.2743C64.1397 16.7389 64.3735 17.1583 64.0618 18.3005C63.802 19.2361 63.4774 20.1588 63.1462 21.1977C63.7111 21.1977 64.2306 21.1784 64.7437 21.2042C65.3216 21.23 65.9385 21.2042 66.3346 21.7398C66.458 21.9011 66.5035 22.1205 66.5879 22.3076C66.4061 22.3657 66.2243 22.4689 66.0424 22.4689C65.0424 22.4883 64.0358 22.4689 63.0358 22.5076C62.841 22.5141 62.5357 22.6948 62.4708 22.8625C61.1266 26.5922 59.6005 30.2638 58.8992 34.187C58.8927 34.2387 58.9057 34.2903 58.9317 34.5161C59.3473 34.0451 59.7174 33.6837 60.0031 33.2708C61.2175 31.5543 62.3994 29.8121 63.6007 28.0892C63.7566 27.8698 63.9189 27.6375 64.1267 27.4762C64.2371 27.3859 64.4579 27.4375 64.6332 27.4246C64.6332 27.573 64.6917 27.7537 64.6268 27.8698C64.2501 28.5538 63.8735 29.2314 63.4514 29.8895C62.5163 31.3349 61.5682 32.7739 60.5941 34.1935C60.3083 34.6065 59.9252 34.9549 59.5616 35.3098C58.9057 35.9486 58.1264 36.0003 57.3407 35.6325C56.6004 35.284 56.2822 34.6387 56.2562 33.8321C56.1653 31.3414 56.964 29.0184 57.6329 26.6761C57.9771 25.4759 58.3797 24.295 58.7888 23.1142C58.9446 22.6625 58.8992 22.4431 58.3537 22.4302C57.7757 22.4173 57.1913 22.3592 56.6133 22.2882C56.0744 22.2302 55.7172 21.9204 55.4315 21.301Z" fill="white"/>
<path d="M86.5175 34.8388C86.6474 34.6258 86.7708 34.4129 86.9072 34.1999C88.115 32.2835 89.3294 30.3735 90.5372 28.4635C90.6996 28.2054 90.836 27.9215 91.0178 27.6763C91.0957 27.573 91.2645 27.5343 91.3944 27.4698C91.4659 27.6053 91.5503 27.7408 91.5957 27.8827C91.6152 27.9602 91.5698 28.0634 91.5308 28.1408C90.4333 30.5671 89.3683 33.0126 87.7124 35.1356C86.8033 36.2906 85.6084 36.4842 84.5304 35.6324C83.5823 34.8904 83.2966 33.8386 83.5369 32.7094C83.9265 30.8897 84.4135 29.0958 84.8616 27.2891C84.8746 27.2439 84.8551 27.1858 84.8486 27.0632C84.5564 27.231 84.2901 27.3665 84.0499 27.5343C83.1472 28.1473 82.2316 28.0441 81.4004 27.4633C80.6081 26.9148 80.4653 26.0179 80.6861 25.1661C80.8549 24.508 81.1991 23.8433 81.6147 23.3013C82.2121 22.5205 83.8745 22.8367 84.2382 23.753C84.3031 23.9079 84.2447 24.1466 84.1668 24.3144C83.894 24.908 83.5823 25.4823 83.3031 26.0695C83.2187 26.2438 83.1732 26.4373 83.0563 26.7922C83.368 26.6438 83.5758 26.6051 83.7122 26.476C84.5694 25.663 85.4266 24.8629 86.2383 24.0047C86.7448 23.4755 86.9267 23.3658 87.602 23.6433C87.8358 23.7401 88.0696 23.8562 88.2709 23.9982C89.1021 24.5789 89.1995 24.8693 88.8813 25.8372C88.0826 28.2828 87.2708 30.7155 86.4851 33.1675C86.3357 33.6386 86.2903 34.1419 86.1928 34.6258C86.3032 34.6968 86.4071 34.7678 86.5175 34.8388Z" fill="white"/>
<path d="M99.3624 23.9079C99.9209 23.9208 100.564 24.1789 100.986 24.7209C101.226 25.0242 101.401 25.5469 101.311 25.9018C100.765 28.0699 99.4273 29.6572 97.4597 30.7155C97.2389 30.8316 96.9661 30.9284 96.7259 30.9091C96.1544 30.8703 95.9141 31.1478 95.8037 31.6576C95.6349 32.4125 95.4076 33.1546 95.2453 33.916C95.1933 34.1677 95.2518 34.4581 95.3102 34.7226C95.3881 35.0646 95.583 35.2195 95.9856 35.1549C97.161 34.9614 98.0506 34.2838 98.9013 33.5353C100.635 32.0125 101.986 30.167 103.337 28.3215C103.538 28.0441 103.772 27.7795 103.954 27.4956C104.2 27.1084 104.506 27.2181 104.804 27.373C105.181 27.573 104.921 27.8247 104.791 27.9989C103.246 30.0767 101.739 32.1867 100.109 34.1999C99.265 35.2453 98.0766 35.8776 96.6999 36.0906C93.8751 36.5229 91.7451 34.4193 92.375 31.6447C93.0374 28.7216 94.5894 26.3147 97.1025 24.5789C97.7324 24.1466 98.4338 23.9014 99.3624 23.9079ZM96.7064 29.7863C98.2584 29.2249 100.148 26.689 99.9988 25.3791C99.0896 25.6243 97.1934 28.0892 96.6674 29.754C96.6609 29.7669 96.6415 29.7798 96.6415 29.7927C96.6415 29.7992 96.6609 29.8186 96.6674 29.8186C96.6869 29.8056 96.6999 29.7927 96.7064 29.7863Z" fill="white"/>
<path d="M50.4572 3.62698C50.4896 3.65279 50.5221 3.6786 50.5481 3.70442C50.9702 4.46584 50.8858 4.853 50.152 5.3305C49.9312 5.47246 49.6714 5.58216 49.4182 5.65314C48.3986 5.94996 47.3791 6.23388 46.3531 6.5178C46.3531 6.5178 46.3401 6.49199 46.3336 6.49199C45.5089 6.71783 44.6906 6.94368 43.8659 7.16307C43.801 7.20824 43.7295 7.24696 43.6646 7.29213C42.7295 7.48571 41.7944 7.67929 40.8593 7.88577C40.7748 7.90513 40.6904 8.01483 40.645 8.10517C40.4761 8.43426 40.3203 8.77625 40.1579 9.11179V9.10534C39.2877 9.73125 38.4176 10.3507 37.5474 10.9766L37.5539 10.9702C37.5149 11.0089 37.476 11.0476 37.437 11.0863V11.067C36.6772 11.5122 35.9174 11.9703 35.1512 12.4091C34.242 12.9253 33.3978 13.5771 32.3134 13.7061L32.2744 13.6932H32.2354C32.19 13.6674 32.151 13.6416 32.1055 13.6158C32.0666 13.6029 32.0341 13.59 31.9951 13.5771C31.9107 13.1705 32.0861 12.8737 32.3588 12.5834C32.6965 12.222 32.9822 11.8155 33.2874 11.4219C33.2939 11.3896 33.3004 11.3509 33.3069 11.3186L33.3004 11.3251C34.0342 10.383 34.7615 9.44088 35.4953 8.49878L35.4888 8.50524C35.9889 8.27294 36.4629 7.96966 36.9889 7.83415C38.2228 7.51152 39.4826 7.26631 40.7294 6.9953C43.4243 6.30486 46.1258 5.60797 48.8207 4.91753C48.8597 4.90462 48.8986 4.89172 48.9376 4.87881C49.1909 4.78202 49.4441 4.67878 49.6909 4.58199H49.6844C49.6844 4.47229 49.6909 4.36259 49.6909 4.2529L49.6974 4.25935C49.6584 4.22063 49.6195 4.18837 49.574 4.14965H49.5805C49.5091 4.11094 49.4311 4.07222 49.3597 4.03351L49.3727 4.03996C48.7428 3.78185 48.1324 3.45276 47.4765 3.28499C45.853 2.87847 44.34 3.48502 42.8204 3.93026C42.1515 4.11739 41.4892 4.29807 40.8203 4.4852C39.5475 4.80783 38.2747 5.12401 36.9954 5.44665L37.0019 5.4402C36.9629 5.44665 36.9305 5.4531 36.8915 5.45955C35.9954 5.49182 35.4239 5.04013 34.9758 4.29807C34.4498 3.42695 33.8524 2.59455 33.2874 1.74924L33.2939 1.75569C33.2744 1.65245 33.2615 1.54276 33.229 1.43951C33.0991 1.0459 32.8783 0.658735 33.2485 0.278025C33.6251 -0.109138 34.0667 -0.0123462 34.5148 0.0973499C35.2681 0.284479 36.0278 0.471604 36.7811 0.658733C37.8007 0.942653 38.8202 1.22657 39.8462 1.51049C40.8333 1.89766 41.8918 2.12995 42.7035 2.88492C42.7944 2.96881 43.0217 2.9559 43.1646 2.92364C43.8464 2.75587 44.5218 2.56229 45.1972 2.37516C45.6452 2.34935 46.0933 2.30418 46.5479 2.29772C48.0155 2.27191 49.2753 2.8462 50.4572 3.62698ZM41.2814 3.03979C40.554 2.78813 39.8202 2.53648 39.0929 2.27837C37.45 1.77506 35.8265 1.21367 34.0927 1.00073C34.5213 1.81377 34.9888 2.55583 35.4564 3.29144C35.5083 3.37533 35.6057 3.42695 35.6837 3.49793V3.48503C35.9044 4.30452 36.2876 4.61425 37.0084 4.44648C38.3786 4.11739 39.7293 3.74313 41.093 3.38823C41.119 3.39469 41.1385 3.38823 41.158 3.36887C41.2489 3.31725 41.3333 3.26563 41.4242 3.21401C41.3723 3.16239 41.3268 3.10431 41.2814 3.03979ZM39.4631 8.51169C39.4241 8.43426 39.3852 8.35037 39.3462 8.27294C38.2942 8.25358 37.2422 8.57622 36.411 9.09243C35.4499 9.68608 34.9109 10.7895 34.255 11.7187C34.307 11.7703 34.3654 11.8219 34.4174 11.8736C36.0993 10.7508 37.7812 9.62801 39.4631 8.51169Z" fill="white"/>
<path d="M20.7088 11.3767C20.6374 11.2799 20.566 11.1831 20.488 11.0799C21.2803 10.6863 22.0596 10.2604 22.8713 9.90548C24.183 9.33764 25.5013 8.77625 26.8455 8.3052C27.4949 8.0729 28.2222 8.04709 28.9106 7.93094C28.9106 7.97611 28.9106 8.02128 28.9106 8.0729C28.4625 8.26649 28.0274 8.51814 27.5598 8.64074C25.3195 9.24085 23.2349 10.2281 21.1634 11.2283C21.0205 11.2993 20.8647 11.3315 20.7088 11.3767Z" fill="white"/>
<path d="M15.9229 12.9447C15.4683 13.4738 15.0462 14.0352 14.5527 14.5256C13.9163 15.158 13.2214 15.7323 12.5526 16.3259C12.8188 15.9968 13.0656 15.6419 13.3643 15.3387C14.0267 14.6482 14.715 13.9771 15.3969 13.3061C15.5462 13.1641 15.7475 13.0673 15.9229 12.9447Z" fill="white"/>
<path d="M49.6909 4.56908C49.4376 4.66587 49.1844 4.76911 48.9376 4.8659C49.1909 4.76911 49.4376 4.66587 49.6909 4.56908Z" fill="white"/>
<path d="M12.4357 16.4421C12.2798 16.5711 12.1175 16.7002 11.9616 16.8292C12.124 16.7002 12.2798 16.5711 12.4357 16.4421Z" fill="white"/>
<path d="M49.6974 4.23999C49.6974 4.34969 49.6909 4.45938 49.6909 4.56908C49.6909 4.45938 49.6909 4.34969 49.6974 4.23999Z" fill="white"/>
<path d="M49.3597 4.0206C49.4311 4.05932 49.5091 4.09803 49.5805 4.13675C49.5091 4.09803 49.4376 4.05932 49.3597 4.0206Z" fill="white"/>
<path d="M32.1055 13.6093C32.151 13.6351 32.19 13.661 32.2354 13.6868C32.1965 13.6674 32.151 13.6416 32.1055 13.6093Z" fill="white"/>
<path d="M96.7064 29.7863C96.6934 29.7992 96.6804 29.8121 96.6674 29.8186C96.6609 29.8186 96.6415 29.7992 96.6415 29.7927C96.6479 29.7798 96.6609 29.7669 96.6674 29.754C96.6739 29.7476 96.7064 29.7863 96.7064 29.7863Z" fill="white"/>
<path d="M31.9783 44.1327C31.9783 43.2529 32.1575 42.4779 32.5159 41.8075C32.8742 41.133 33.376 40.6114 34.0211 40.2427C34.6704 39.874 35.4145 39.6897 36.2536 39.6897C36.5993 39.6897 36.9429 39.7232 37.2845 39.7902C37.6302 39.8573 37.879 39.9348 38.0307 40.0228V40.5506C37.3814 40.3202 36.8059 40.205 36.3042 40.205C35.6127 40.205 34.9845 40.3537 34.4195 40.6512C33.8545 40.9487 33.4055 41.3928 33.0724 41.9835C32.7393 42.5742 32.5728 43.2948 32.5728 44.1453C32.5728 45.3519 32.9038 46.2799 33.5657 46.9293C34.2319 47.5787 35.189 47.9033 36.437 47.9033C37.0188 47.9033 37.5796 47.7902 38.1193 47.564V48.0793C37.9085 48.1882 37.645 48.272 37.3287 48.3307C37.0167 48.3893 36.6921 48.4187 36.3548 48.4187C34.9465 48.4187 33.8651 48.0479 33.1103 47.3063C32.3556 46.5648 31.9783 45.5069 31.9783 44.1327Z" fill="white"/>
<path d="M39.6814 44.0636C39.6814 43.2299 39.8437 42.4799 40.1684 41.8138C40.4973 41.1477 40.9526 40.6282 41.5345 40.2553C42.1163 39.8782 42.7762 39.6897 43.514 39.6897C44.2856 39.6897 44.9602 39.8782 45.5378 40.2553C46.1197 40.6282 46.5666 41.1456 46.8786 41.8075C47.1948 42.4695 47.3529 43.2215 47.3529 44.0636C47.3529 44.8931 47.1906 45.6389 46.866 46.3008C46.5413 46.9628 46.0881 47.4823 45.5062 47.8594C44.9286 48.2322 44.2751 48.4187 43.5456 48.4187C42.7656 48.4187 42.0826 48.2322 41.4965 47.8594C40.9147 47.4865 40.4656 46.9712 40.1494 46.3134C39.8374 45.6515 39.6814 44.9015 39.6814 44.0636ZM46.7521 44.0636C46.7521 43.2592 46.6088 42.5658 46.3221 41.9835C46.0354 41.3969 45.6453 40.9529 45.152 40.6512C44.663 40.3454 44.1169 40.1924 43.514 40.1924C42.9195 40.1924 42.3756 40.3454 41.8823 40.6512C41.389 40.9529 40.9969 41.3969 40.706 41.9835C40.4193 42.5658 40.2759 43.2592 40.2759 44.0636C40.2759 44.8764 40.4214 45.5739 40.7123 46.1563C41.0032 46.7345 41.3953 47.1723 41.8886 47.4697C42.3862 47.7672 42.9385 47.9159 43.5456 47.9159C44.1401 47.9159 44.6798 47.7672 45.1647 47.4697C45.6496 47.1723 46.0354 46.7345 46.3221 46.1563C46.6088 45.5739 46.7521 44.8764 46.7521 44.0636Z" fill="white"/>
<path d="M49.3515 39.8594H49.908V47.7588H54.196V48.2616H49.3515V39.8594Z" fill="white"/>
<path d="M55.8909 39.8594H56.4475V47.7588H60.7354V48.2616H55.8909V39.8594Z" fill="white"/>
<path d="M62.4304 39.8594H67.2496V40.3621H62.9869V43.7054H66.8891V44.2081H62.9869V47.7588H67.4962V48.2616H62.4304V39.8594Z" fill="white"/>
<path d="M69.1153 44.1327C69.1153 43.2529 69.2944 42.4779 69.6528 41.8075C70.0112 41.133 70.513 40.6114 71.1581 40.2427C71.8074 39.874 72.5515 39.6897 73.3906 39.6897C73.7363 39.6897 74.0799 39.7232 74.4214 39.7902C74.7672 39.8573 75.0159 39.9348 75.1677 40.0228V40.5506C74.5184 40.3202 73.9429 40.205 73.4412 40.205C72.7497 40.205 72.1215 40.3537 71.5565 40.6512C70.9915 40.9487 70.5425 41.3928 70.2094 41.9835C69.8763 42.5742 69.7098 43.2948 69.7098 44.1453C69.7098 45.3519 70.0407 46.2799 70.7027 46.9293C71.3689 47.5787 72.326 47.9033 73.574 47.9033C74.1558 47.9033 74.7166 47.7902 75.2563 47.564V48.0793C75.0455 48.1882 74.7819 48.272 74.4657 48.3307C74.1537 48.3893 73.8291 48.4187 73.4918 48.4187C72.0835 48.4187 71.002 48.0479 70.2473 47.3063C69.4926 46.5648 69.1153 45.5069 69.1153 44.1327Z" fill="white"/>
<path d="M79.1774 40.3747H76.2619V39.8594H82.6622V40.3747H79.734V48.2616H79.1774V40.3747Z" fill="white"/>
<path d="M84.0978 39.8594H84.6544V48.2616H84.0978V39.8594Z" fill="white"/>
<path d="M86.7098 39.8594L88.3478 44.3464C88.9212 45.9175 89.3133 47.034 89.5242 47.696H89.5495C89.7561 47.0214 90.0702 46.106 90.4918 44.9497L92.3322 39.8594H92.9014L89.8341 48.2616H89.2143L86.1406 39.8594H86.7098Z" fill="white"/>
<path d="M94.4066 39.8594H99.2258V40.3621H94.9632V43.7054H98.8653V44.2081H94.9632V47.7588H99.4725V48.2616H94.4066V39.8594Z" fill="white"/>
</svg>
