<svg width="100" height="21" viewBox="0 0 100 21" fill="none" xmlns="http://www.w3.org/2000/svg">
<path d="M8.93006 3.95968C9.26683 2.92321 10.7332 2.92321 11.0699 3.95968L11.9926 6.79922C12.1432 7.26275 12.5751 7.57658 13.0625 7.57658H16.0482C17.138 7.57658 17.5911 8.97115 16.7094 9.61172L14.294 11.3667C13.8997 11.6531 13.7347 12.1609 13.8853 12.6244L14.8079 15.464C15.1447 16.5005 13.9584 17.3624 13.0767 16.7218L10.6613 14.9668C10.267 14.6804 9.73304 14.6804 9.33874 14.9668L6.92328 16.7218C6.0416 17.3624 4.85531 16.5005 5.19209 15.464L6.11471 12.6244C6.26532 12.1609 6.10033 11.6531 5.70603 11.3667L3.29057 9.61172C2.40889 8.97115 2.86201 7.57658 3.95183 7.57658H6.9375C7.42488 7.57658 7.85683 7.26275 8.00744 6.79922L8.93006 3.95968Z" fill="#FBBC04"/>
<path d="M28.9301 3.95968C29.2668 2.92321 30.7332 2.92321 31.0699 3.95968L31.9926 6.79922C32.1432 7.26275 32.5751 7.57658 33.0625 7.57658H36.0482C37.138 7.57658 37.5911 8.97115 36.7094 9.61172L34.294 11.3667C33.8997 11.6531 33.7347 12.1609 33.8853 12.6244L34.8079 15.464C35.1447 16.5005 33.9584 17.3624 33.0767 16.7218L30.6613 14.9668C30.267 14.6804 29.733 14.6804 29.3387 14.9668L26.9233 16.7218C26.0416 17.3624 24.8553 16.5005 25.1921 15.464L26.1147 12.6244C26.2653 12.1609 26.1003 11.6531 25.706 11.3667L23.2906 9.61172C22.4089 8.97115 22.862 7.57658 23.9518 7.57658H26.9375C27.4249 7.57658 27.8568 7.26275 28.0074 6.79922L28.9301 3.95968Z" fill="#FBBC04"/>
<path d="M48.9301 3.95968C49.2668 2.92321 50.7332 2.92321 51.0699 3.95968L51.9926 6.79922C52.1432 7.26275 52.5751 7.57658 53.0625 7.57658H56.0482C57.138 7.57658 57.5911 8.97115 56.7094 9.61172L54.294 11.3667C53.8997 11.6531 53.7347 12.1609 53.8853 12.6244L54.8079 15.464C55.1447 16.5005 53.9584 17.3624 53.0767 16.7218L50.6613 14.9668C50.267 14.6804 49.733 14.6804 49.3387 14.9668L46.9233 16.7218C46.0416 17.3624 44.8553 16.5005 45.1921 15.464L46.1147 12.6244C46.2653 12.1609 46.1003 11.6531 45.706 11.3667L43.2906 9.61172C42.4089 8.97115 42.862 7.57658 43.9518 7.57658H46.9375C47.4249 7.57658 47.8568 7.26275 48.0074 6.79922L48.9301 3.95968Z" fill="#FBBC04"/>
<path d="M68.9301 3.95968C69.2668 2.92321 70.7332 2.92321 71.0699 3.95968L71.9926 6.79922C72.1432 7.26275 72.5751 7.57658 73.0625 7.57658H76.0482C77.138 7.57658 77.5911 8.97115 76.7094 9.61172L74.294 11.3667C73.8997 11.6531 73.7347 12.1609 73.8853 12.6244L74.8079 15.464C75.1447 16.5005 73.9584 17.3624 73.0767 16.7218L70.6613 14.9668C70.267 14.6804 69.733 14.6804 69.3387 14.9668L66.9233 16.7218C66.0416 17.3624 64.8553 16.5005 65.1921 15.464L66.1147 12.6244C66.2653 12.1609 66.1003 11.6531 65.706 11.3667L63.2906 9.61172C62.4089 8.97115 62.862 7.57658 63.9518 7.57658H66.9375C67.4249 7.57658 67.8568 7.26275 68.0074 6.79922L68.9301 3.95968Z" fill="#FBBC04"/>
<path d="M88.9301 3.95968C89.2668 2.92321 90.7332 2.92321 91.0699 3.95968L91.9926 6.79922C92.1432 7.26275 92.5751 7.57658 93.0625 7.57658H96.0482C97.138 7.57658 97.5911 8.97115 96.7094 9.61172L94.294 11.3667C93.8997 11.6531 93.7347 12.1609 93.8853 12.6244L94.8079 15.464C95.1447 16.5005 93.9584 17.3624 93.0767 16.7218L90.6613 14.9668C90.267 14.6804 89.733 14.6804 89.3387 14.9668L86.9233 16.7218C86.0416 17.3624 84.8553 16.5005 85.1921 15.464L86.1147 12.6244C86.2653 12.1609 86.1003 11.6531 85.706 11.3667L83.2906 9.61172C82.4089 8.97115 82.862 7.57658 83.9518 7.57658H86.9375C87.4249 7.57658 87.8568 7.26275 88.0074 6.79922L88.9301 3.95968Z" fill="#D6D6D6"/>
</svg>
