<svg width="181" height="47" viewBox="0 0 181 47" fill="none" xmlns="http://www.w3.org/2000/svg">
<rect width="181" height="47" fill="#CF2DB1"/>
<path d="M18.0156 29.5H11.4375V18.0781H18.0156V20.0625H13.8594V22.5703H17.7266V24.5547H13.8594V27.5H18.0156V29.5ZM29.8828 23.6797C29.8828 24.9661 29.6354 26.0417 29.1406 26.9062C28.651 27.7656 27.9401 28.4141 27.0078 28.8516C26.0755 29.2839 24.9531 29.5 23.6406 29.5H20.4062V18.0781H23.9922C25.1901 18.0781 26.2292 18.2917 27.1094 18.7188C27.9896 19.1406 28.6719 19.7682 29.1562 20.6016C29.6406 21.4297 29.8828 22.4557 29.8828 23.6797ZM27.3672 23.7422C27.3672 22.8984 27.2422 22.2057 26.9922 21.6641C26.7474 21.1172 26.3828 20.7135 25.8984 20.4531C25.4193 20.1927 24.8255 20.0625 24.1172 20.0625H22.8281V27.5H23.8672C25.0495 27.5 25.9271 27.1849 26.5 26.5547C27.0781 25.9245 27.3672 24.987 27.3672 23.7422ZM32.25 29.5V18.0781H34.6719V29.5H32.25ZM41.9531 29.5H39.5312V20.0938H36.4297V18.0781H45.0547V20.0938H41.9531V29.5ZM57.1797 23.7734C57.1797 24.6536 57.0703 25.4557 56.8516 26.1797C56.6328 26.8984 56.2995 27.5182 55.8516 28.0391C55.4089 28.5599 54.8464 28.9609 54.1641 29.2422C53.4818 29.5182 52.6745 29.6562 51.7422 29.6562C50.8099 29.6562 50.0026 29.5182 49.3203 29.2422C48.638 28.9609 48.0729 28.5599 47.625 28.0391C47.1823 27.5182 46.8516 26.8958 46.6328 26.1719C46.4141 25.4479 46.3047 24.6432 46.3047 23.7578C46.3047 22.5755 46.4974 21.5469 46.8828 20.6719C47.2734 19.7917 47.8724 19.1094 48.6797 18.625C49.487 18.1406 50.513 17.8984 51.7578 17.8984C52.9974 17.8984 54.0156 18.1406 54.8125 18.625C55.6146 19.1094 56.2083 19.7917 56.5938 20.6719C56.9844 21.5521 57.1797 22.5859 57.1797 23.7734ZM48.8438 23.7734C48.8438 24.5703 48.9427 25.2578 49.1406 25.8359C49.3438 26.4089 49.6589 26.8516 50.0859 27.1641C50.513 27.4714 51.0651 27.625 51.7422 27.625C52.4297 27.625 52.987 27.4714 53.4141 27.1641C53.8411 26.8516 54.151 26.4089 54.3438 25.8359C54.5417 25.2578 54.6406 24.5703 54.6406 23.7734C54.6406 22.5755 54.4167 21.6328 53.9688 20.9453C53.5208 20.2578 52.7839 19.9141 51.7578 19.9141C51.0755 19.9141 50.5182 20.0703 50.0859 20.3828C49.6589 20.6901 49.3438 21.1328 49.1406 21.7109C48.9427 22.2839 48.8438 22.9714 48.8438 23.7734ZM62.875 18.0781C63.9115 18.0781 64.7656 18.2031 65.4375 18.4531C66.1146 18.7031 66.6172 19.0807 66.9453 19.5859C67.2734 20.0911 67.4375 20.7292 67.4375 21.5C67.4375 22.0208 67.3385 22.4766 67.1406 22.8672C66.9427 23.2578 66.6823 23.5885 66.3594 23.8594C66.0365 24.1302 65.6875 24.3516 65.3125 24.5234L68.6719 29.5H65.9844L63.2578 25.1172H61.9688V29.5H59.5469V18.0781H62.875ZM62.7031 20.0625H61.9688V23.1484H62.75C63.5521 23.1484 64.125 23.0156 64.4688 22.75C64.8177 22.4792 64.9922 22.0833 64.9922 21.5625C64.9922 21.0208 64.8047 20.6354 64.4297 20.4062C64.0599 20.1771 63.4844 20.0625 62.7031 20.0625ZM71.8438 18.0781L71.9531 18.25C71.8594 18.6302 71.737 19.0365 71.5859 19.4688C71.4401 19.8958 71.2786 20.3255 71.1016 20.7578C70.9297 21.1901 70.7552 21.6016 70.5781 21.9922H68.8672C68.9401 21.6797 69.013 21.3516 69.0859 21.0078C69.1641 20.6641 69.237 20.3203 69.3047 19.9766C69.3776 19.6328 69.4427 19.2995 69.5 18.9766C69.5573 18.6536 69.6068 18.3542 69.6484 18.0781H71.8438ZM80.3203 26.3281C80.3203 27.0052 80.1562 27.5938 79.8281 28.0938C79.5 28.5938 79.0208 28.9792 78.3906 29.25C77.7656 29.5208 77.0052 29.6562 76.1094 29.6562C75.7135 29.6562 75.3255 29.6302 74.9453 29.5781C74.5703 29.526 74.2083 29.4505 73.8594 29.3516C73.5156 29.2474 73.1875 29.1198 72.875 28.9688V26.7188C73.4167 26.9583 73.9792 27.1745 74.5625 27.3672C75.1458 27.5599 75.724 27.6562 76.2969 27.6562C76.6927 27.6562 77.0104 27.6042 77.25 27.5C77.4948 27.3958 77.6719 27.2526 77.7812 27.0703C77.8906 26.888 77.9453 26.6797 77.9453 26.4453C77.9453 26.1589 77.849 25.9141 77.6562 25.7109C77.4635 25.5078 77.1979 25.3177 76.8594 25.1406C76.526 24.9635 76.1484 24.7734 75.7266 24.5703C75.4609 24.4453 75.1719 24.2943 74.8594 24.1172C74.5469 23.9349 74.25 23.7135 73.9688 23.4531C73.6875 23.1927 73.4557 22.8776 73.2734 22.5078C73.0964 22.1328 73.0078 21.6849 73.0078 21.1641C73.0078 20.4818 73.1641 19.8984 73.4766 19.4141C73.7891 18.9297 74.2344 18.5599 74.8125 18.3047C75.3958 18.0443 76.0833 17.9141 76.875 17.9141C77.4688 17.9141 78.0339 17.9844 78.5703 18.125C79.112 18.2604 79.6771 18.4583 80.2656 18.7188L79.4844 20.6016C78.9583 20.388 78.487 20.224 78.0703 20.1094C77.6536 19.9896 77.2292 19.9297 76.7969 19.9297C76.4948 19.9297 76.237 19.9792 76.0234 20.0781C75.8099 20.1719 75.6484 20.3073 75.5391 20.4844C75.4297 20.6562 75.375 20.8568 75.375 21.0859C75.375 21.3568 75.4531 21.5859 75.6094 21.7734C75.7708 21.9557 76.0104 22.1328 76.3281 22.3047C76.651 22.4766 77.0521 22.6771 77.5312 22.9062C78.1146 23.1823 78.612 23.4714 79.0234 23.7734C79.4401 24.0703 79.7604 24.4219 79.9844 24.8281C80.2083 25.2292 80.3203 25.7292 80.3203 26.3281ZM91.3984 19.9297C90.9349 19.9297 90.5234 20.0208 90.1641 20.2031C89.8099 20.3802 89.5104 20.638 89.2656 20.9766C89.026 21.3151 88.8438 21.724 88.7188 22.2031C88.5938 22.6823 88.5312 23.2214 88.5312 23.8203C88.5312 24.6276 88.6302 25.3177 88.8281 25.8906C89.0312 26.4583 89.3438 26.8932 89.7656 27.1953C90.1875 27.4922 90.7318 27.6406 91.3984 27.6406C91.862 27.6406 92.3255 27.5885 92.7891 27.4844C93.2578 27.3802 93.7656 27.2318 94.3125 27.0391V29.0703C93.8073 29.2786 93.3099 29.4271 92.8203 29.5156C92.3307 29.6094 91.7812 29.6562 91.1719 29.6562C89.9948 29.6562 89.026 29.4141 88.2656 28.9297C87.5104 28.4401 86.9505 27.7578 86.5859 26.8828C86.2214 26.0026 86.0391 24.9766 86.0391 23.8047C86.0391 22.9401 86.1562 22.1484 86.3906 21.4297C86.625 20.7109 86.9688 20.0885 87.4219 19.5625C87.875 19.0365 88.4349 18.6302 89.1016 18.3438C89.7682 18.0573 90.5339 17.9141 91.3984 17.9141C91.9661 17.9141 92.5339 17.987 93.1016 18.1328C93.6745 18.2734 94.2214 18.4688 94.7422 18.7188L93.9609 20.6875C93.5339 20.4844 93.1042 20.3073 92.6719 20.1562C92.2396 20.0052 91.8151 19.9297 91.3984 19.9297ZM106.109 29.5H103.695V24.5703H99.1719V29.5H96.75V18.0781H99.1719V22.5547H103.695V18.0781H106.109V29.5ZM119.367 23.7734C119.367 24.6536 119.258 25.4557 119.039 26.1797C118.82 26.8984 118.487 27.5182 118.039 28.0391C117.596 28.5599 117.034 28.9609 116.352 29.2422C115.669 29.5182 114.862 29.6562 113.93 29.6562C112.997 29.6562 112.19 29.5182 111.508 29.2422C110.826 28.9609 110.26 28.5599 109.812 28.0391C109.37 27.5182 109.039 26.8958 108.82 26.1719C108.602 25.4479 108.492 24.6432 108.492 23.7578C108.492 22.5755 108.685 21.5469 109.07 20.6719C109.461 19.7917 110.06 19.1094 110.867 18.625C111.674 18.1406 112.701 17.8984 113.945 17.8984C115.185 17.8984 116.203 18.1406 117 18.625C117.802 19.1094 118.396 19.7917 118.781 20.6719C119.172 21.5521 119.367 22.5859 119.367 23.7734ZM111.031 23.7734C111.031 24.5703 111.13 25.2578 111.328 25.8359C111.531 26.4089 111.846 26.8516 112.273 27.1641C112.701 27.4714 113.253 27.625 113.93 27.625C114.617 27.625 115.174 27.4714 115.602 27.1641C116.029 26.8516 116.339 26.4089 116.531 25.8359C116.729 25.2578 116.828 24.5703 116.828 23.7734C116.828 22.5755 116.604 21.6328 116.156 20.9453C115.708 20.2578 114.971 19.9141 113.945 19.9141C113.263 19.9141 112.706 20.0703 112.273 20.3828C111.846 20.6901 111.531 21.1328 111.328 21.7109C111.13 22.2839 111.031 22.9714 111.031 23.7734ZM121.734 29.5V18.0781H124.156V29.5H121.734ZM131.883 19.9297C131.419 19.9297 131.008 20.0208 130.648 20.2031C130.294 20.3802 129.995 20.638 129.75 20.9766C129.51 21.3151 129.328 21.724 129.203 22.2031C129.078 22.6823 129.016 23.2214 129.016 23.8203C129.016 24.6276 129.115 25.3177 129.312 25.8906C129.516 26.4583 129.828 26.8932 130.25 27.1953C130.672 27.4922 131.216 27.6406 131.883 27.6406C132.346 27.6406 132.81 27.5885 133.273 27.4844C133.742 27.3802 134.25 27.2318 134.797 27.0391V29.0703C134.292 29.2786 133.794 29.4271 133.305 29.5156C132.815 29.6094 132.266 29.6562 131.656 29.6562C130.479 29.6562 129.51 29.4141 128.75 28.9297C127.995 28.4401 127.435 27.7578 127.07 26.8828C126.706 26.0026 126.523 24.9766 126.523 23.8047C126.523 22.9401 126.641 22.1484 126.875 21.4297C127.109 20.7109 127.453 20.0885 127.906 19.5625C128.359 19.0365 128.919 18.6302 129.586 18.3438C130.253 18.0573 131.018 17.9141 131.883 17.9141C132.451 17.9141 133.018 17.987 133.586 18.1328C134.159 18.2734 134.706 18.4688 135.227 18.7188L134.445 20.6875C134.018 20.4844 133.589 20.3073 133.156 20.1562C132.724 20.0052 132.299 19.9297 131.883 19.9297ZM143.812 29.5H137.234V18.0781H143.812V20.0625H139.656V22.5703H143.523V24.5547H139.656V27.5H143.812V29.5Z" fill="#EEF2F5"/>
<mask id="mask0_306_5988" style="mask-type:alpha" maskUnits="userSpaceOnUse" x="153" y="14" width="18" height="19">
<rect x="153" y="14.5" width="18" height="18" fill="white"/>
</mask>
<g mask="url(#mask0_306_5988)">
<path d="M157.369 30.25L158.588 24.9813L154.5 21.4375L159.9 20.9688L162 16L164.1 20.9688L169.5 21.4375L165.412 24.9813L166.631 30.25L162 27.4563L157.369 30.25Z" fill="white"/>
</g>
</svg>
