<svg width="27" height="26" viewBox="0 0 27 26" fill="none" xmlns="http://www.w3.org/2000/svg">
<mask id="mask0_306_6012" style="mask-type:alpha" maskUnits="userSpaceOnUse" x="0" y="0" width="27" height="26">
<rect x="0.5" width="26" height="26" fill="#D9D9D9"/>
</mask>
<g mask="url(#mask0_306_6012)">
<path d="M6.99967 24.9168C6.40384 24.9168 5.89377 24.7047 5.46947 24.2804C5.04516 23.8561 4.83301 23.346 4.83301 22.7502V10.8335C4.83301 10.2377 5.04516 9.72759 5.46947 9.30329C5.89377 8.87898 6.40384 8.66683 6.99967 8.66683H10.2497V10.8335H6.99967V22.7502H19.9997V10.8335H16.7497V8.66683H19.9997C20.5955 8.66683 21.1056 8.87898 21.5299 9.30329C21.9542 9.72759 22.1663 10.2377 22.1663 10.8335V22.7502C22.1663 23.346 21.9542 23.8561 21.5299 24.2804C21.1056 24.7047 20.5955 24.9168 19.9997 24.9168H6.99967ZM12.4163 17.3335V5.22725L10.683 6.96058L9.16634 5.41683L13.4997 1.0835L17.833 5.41683L16.3163 6.96058L14.583 5.22725V17.3335H12.4163Z" fill="white"/>
</g>
</svg>
