<svg width="35" height="41" viewBox="0 0 35 41" fill="none" xmlns="http://www.w3.org/2000/svg">
<path d="M17.5 32.8L18.5281 31.2848C19.5445 29.8071 28.3733 16.6548 28.3733 11.0394C28.3733 7.09494 26.3003 3.45088 22.9366 1.47983C19.5729 -0.493276 15.4266 -0.493276 12.0631 1.47983C8.69943 3.45123 6.62639 7.09515 6.62639 11.0394C6.62639 16.6548 15.4554 29.807 16.4716 31.2848L17.5 32.8ZM12.1154 10.8224C12.1154 8.61186 13.4279 6.61825 15.4387 5.77258C17.4512 4.92696 19.7683 5.39333 21.3079 6.95814C22.8476 8.52125 23.3086 10.8719 22.474 12.915C21.6411 14.9582 19.6774 16.2889 17.4999 16.2889C16.0713 16.2906 14.7016 15.7149 13.692 14.6882C12.6824 13.6632 12.1154 12.2728 12.1154 10.8224ZM35 34.1667C35 37.9387 27.1652 41 17.5 41C7.83483 41 0 37.9387 0 34.1667C0 31.2967 4.54978 28.823 10.998 27.8119C12.4518 30.1898 13.7037 32.0485 14.2557 32.8412L17.4999 37.6107L20.7306 32.8547C21.2825 32.0484 22.5345 30.1897 23.9883 27.8119C30.4365 28.8232 35 31.2832 35 34.1667Z" fill="#545454"/>
</svg>
