<svg width="37" height="25" viewBox="0 0 37 25" fill="none" xmlns="http://www.w3.org/2000/svg">
<path fill-rule="evenodd" clip-rule="evenodd" d="M34.7336 17.2698H1.39035C0.626369 17.2698 0 17.8961 0 18.6601V19.5682C0 20.3322 0.626369 20.9586 1.39035 20.9586H34.734C35.498 20.9586 36.1244 20.3322 36.1244 19.5682V18.6601C36.124 17.8961 35.4976 17.2698 34.7336 17.2698ZM33.163 21.7274H27.0496V23.8493C27.0496 24.1273 27.1941 24.5 27.4088 24.5H32.8038C33.0185 24.5 33.163 24.1273 33.163 23.8493V21.7274ZM9.07484 21.7274H2.96094V23.8493C2.96094 24.1273 3.10546 24.5 3.3202 24.5H8.71558C8.93032 24.5 9.07484 24.1273 9.07484 23.8493V21.7274ZM19.2137 2.77803V1.80702C19.2137 0.669568 17.997 0.0610602 17.2611 0.870915C17.0447 1.1092 16.9103 1.44005 16.9103 1.80702V2.77803C17.6759 2.70334 18.448 2.70334 19.2137 2.77803ZM6.84581 14.5467H29.2782C29.0809 8.44702 24.1779 3.49046 18.062 3.49046C11.9461 3.49046 7.0431 8.44702 6.84581 14.5467ZM5.74611 16.5013H30.3779C30.5131 15.9586 30.2118 15.3152 29.7182 15.3152H6.40536C5.91214 15.3152 5.61053 15.9586 5.74611 16.5013Z" fill="#545454"/>
</svg>
